<?xml version="1.0" encoding="utf-8"?>
<!-- Generator: Adobe Illustrator 24.1.2, SVG Export Plug-In . SVG Version: 6.00 Build 0)  -->
<svg version="1.1" id="Layer_1" xmlns="http://www.w3.org/2000/svg" xmlns:xlink="http://www.w3.org/1999/xlink" x="0px" y="0px"
	 viewBox="0 0 42 45.4" style="enable-background:new 0 0 42 45.4;" xml:space="preserve">
<style type="text/css">
	.st0{fill:#E82E2E;}
</style>
<g>
	<g>
		<path class="st0" d="M31.2,3.5c0.1-0.4-0.1-0.9-0.5-1.2C30.5,2.1,30.2,2,30,2.1c-0.1,0-0.3,0.2-0.4,0.4c-0.1,0.2,0,0.3,0.1,0.4
			C29.7,3,29.7,3,29.8,3c0,0-0.1,0.1-0.1,0.1c-0.1,0.1-0.3,0.1-0.4,0.1c-0.2,0-0.3,0-0.3,0.1c0,0.1,0,0.2,0.1,0.3S29.2,4,29.3,4
			c0.1,0,0.2-0.1,0.3-0.2c0.1-0.1,0.2-0.2,0.3-0.2c0,0,0.1,0,0.1,0c0,0.1,0,0.3,0.1,0.4c0.1,0.1,0.2,0.2,0.3,0.2
			C30.9,4.1,31.2,3.8,31.2,3.5z M30,3C30,3,30,3,30,3L30,3c-0.1,0-0.2,0-0.3-0.1c-0.1-0.1-0.1-0.2-0.1-0.3c0.1-0.1,0.2-0.3,0.4-0.3
			c0.2-0.1,0.5,0,0.7,0.2c0.3,0.3,0.5,0.7,0.4,1.1c0,0.1,0,0.1-0.1,0.2C31,3.8,30.8,4,30.5,4c-0.1,0-0.2-0.1-0.3-0.2
			c-0.1-0.1-0.1-0.3-0.1-0.4v0h0c0,0-0.2,0.1-0.2,0.1c-0.1,0.1-0.2,0.1-0.3,0.2c-0.1,0.1-0.2,0.2-0.3,0.2c-0.1,0-0.1-0.1-0.2-0.2
			c-0.1-0.1-0.1-0.2,0-0.2c0-0.1,0.1-0.1,0.3-0.1c0.1,0,0.3-0.1,0.4-0.1C29.8,3.1,29.9,3.1,30,3L30,3C30,3,30,3,30,3z"/>
		<path class="st0" d="M30,3.3L30,3.3L30,3.3L30,3.3L30,3.3c0,0.1,0.2,0,0.4,0c0,0,0,0,0,0c0,0,0,0,0,0C30.2,3.2,30,3.3,30,3.3z"/>
		<path class="st0" d="M30,3.2L30,3.2L30,3.2c0,0,0.2-0.2,0.3-0.2l0,0v0l0,0h0C30.1,3,29.9,3.2,30,3.2L30,3.2
			C29.9,3.2,29.9,3.2,30,3.2z"/>
		<path class="st0" d="M30,3.3L30,3.3L30,3.3c0.1-0.1,0.4-0.2,0.4-0.2c0,0,0,0,0,0c0,0,0,0,0,0C30.4,3.1,30.1,3.2,30,3.3
			C30,3.2,30,3.3,30,3.3z"/>
	</g>
	<g>
		<path class="st0" d="M9,1.6C8.4,1.2,7.9,0.9,7.7,1.1C7.6,1.3,7.9,1.8,8.4,2.3s1.1,0.7,1.2,0.5S9.5,2.1,9,1.6z M8.5,2.2
			C8.1,1.9,7.8,1.4,7.9,1.3c0.1-0.1,0.6,0.1,1,0.4c0.4,0.4,0.7,0.8,0.6,0.9C9.4,2.8,8.9,2.6,8.5,2.2z"/>
		<path class="st0" d="M9.6,2.8L7.2,5.1l2.2-2.2L9.6,2.8z"/>
		<path class="st0" d="M7.2,5C7.1,5.1,6.7,5,6.4,4.6C6,4.4,5.9,4,5.9,3.8l1.7-2.5c0,0-1.8,2.4-1.8,2.4C5.6,3.9,5.9,4.3,6.3,4.7
			C6.7,5,7.1,5.2,7.2,5C7.2,5,7.2,5,7.2,5z"/>
		<path class="st0" d="M10.4,1.5L8.9,2.1c0,0,0,0,0,0c0,0,0,0,0,0C8.9,2.1,10.2,1.7,10.4,1.5c-0.1,0.1-0.1,0.1-0.1,0.2c0,0,0,0,0,0
			c0,0,0,0,0,0.1c-0.2,0-1.3,0.5-1.3,0.5s0,0,0,0c0,0,0,0,0,0c0,0-0.1,0-0.1-0.1c0,0,0,0,0,0c0,0,0,0,0,0C9,2.3,9,2.4,9.1,2.4
			c0,0,0.1,0,0.1,0c0,0,1.4-0.5,1.4-0.5c0,0,0,0,0,0l0,0c0,0,0,0,0,0c0,0-0.1,0-0.1-0.1c0,0,0,0,0,0C10.4,1.7,10.5,1.6,10.4,1.5
			L10.4,1.5L10.4,1.5C10.4,1.5,10.4,1.5,10.4,1.5z"/>
		<path class="st0" d="M7.4,2.3c-0.3-0.1-0.7,0-0.8,0.2c0,0,0,0,0,0c0,0.1,0.3,0.3,0.4,0.3c0,0,0,0,0,0c0,0,0,0,0,0c0,0,0,0,0,0
			c0,0,0,0,0,0C7,2.7,6.8,2.6,6.8,2.6c0,0,0.1-0.1,0.1-0.1c0.1-0.1,0.4-0.1,0.5,0c0.2,0,0.1,0.1,0.1,0.2c0,0,0,0,0,0.1
			c0,0,0,0,0.1,0C7.7,2.5,7.6,2.4,7.4,2.3z"/>
		<path class="st0" d="M7.7,2.9c0-0.1-0.2-0.1-0.2-0.1c0,0,0,0,0,0s0,0,0,0c-0.1,0-0.3,0-0.4,0.1c0,0,0,0,0,0c0,0,0,0,0,0
			C7,3.1,7.4,3.2,7.5,3.1c0.1,0,0.1-0.1,0.1-0.1C7.7,3,7.7,2.9,7.7,2.9z M7.6,2.9C7.6,3,7.6,3,7.6,2.9C7.6,3,7.6,3,7.6,2.9
			C7.5,3,7.5,3,7.6,2.9C7.4,3.1,7.2,3,7.1,3C7.2,2.9,7.4,2.9,7.6,2.9C7.5,2.9,7.6,2.9,7.6,2.9L7.6,2.9C7.6,2.9,7.6,2.9,7.6,2.9z"/>
		<path class="st0" d="M8,3.1C8,3,7.9,3,8,3.1c-0.2,0-0.3,0.1-0.4,0.1c-0.1,0-0.2,0.1-0.4,0.1c0,0,0,0,0,0.1c0,0,0,0,0.1,0
			c0.1,0,0.2-0.1,0.3-0.1C7.7,3.2,7.8,3.2,8,3.1C8,3.1,8,3.1,8,3.1z"/>
		<path class="st0" d="M7.9,3.3c-0.1,0-0.2,0-0.4,0c-0.1,0-0.1,0-0.2,0c0,0,0,0,0,0c0,0,0,0,0,0c0.1,0,0.1,0,0.2,0
			C7.7,3.4,7.8,3.4,7.9,3.3C8,3.4,8,3.4,7.9,3.3C8,3.4,8,3.3,7.9,3.3z"/>
		<path class="st0" d="M7.5,3.3C7.5,3.3,7.5,3.3,7.5,3.3C7.5,3.4,7.4,3.4,7.4,3.5c0,0,0,0.1-0.1,0.1c0,0,0,0,0.1,0c0,0,0,0,0,0.1
			c0,0,0-0.1,0.1-0.1C7.5,3.5,7.5,3.4,7.5,3.3C7.6,3.3,7.6,3.3,7.5,3.3z"/>
		<path class="st0" d="M8.1,3.7C8.1,3.6,7.9,3.5,7.8,3.5c-0.1,0-0.2,0.1-0.2,0.2c0,0,0,0.2,0.2,0.2c0,0,0,0,0.1,0c0,0,0,0,0-0.1
			c-0.1,0-0.1-0.1-0.1-0.1c0,0,0,0,0-0.1c0,0,0,0,0,0C7.8,3.8,8,3.8,8.1,3.7C8.1,3.8,8.1,3.7,8.1,3.7C8.1,3.7,8.1,3.7,8.1,3.7z
			 M7.8,3.6c0,0,0.2,0,0.2,0.1C7.9,3.7,7.8,3.6,7.8,3.6C7.8,3.6,7.8,3.6,7.8,3.6z"/>
		<path class="st0" d="M7.8,1.9c0,0,0.3,0.9,0.9,1.7L8.5,3.7C8.5,3.7,7.9,3,7.8,1.9z"/>
		<path class="st0" d="M6.7,2.8c0,0,0.5,0.8,1.3,1.4L7.9,4.3C7.9,4.3,7.1,3.8,6.7,2.8z"/>
	</g>
	<path class="st0" d="M26.6,1.4c-0.1,0-0.2,0-0.2,0l-2.5,1.7c0-0.1-0.1-0.2-0.1-0.2c0-0.1-0.1-0.2-0.2-0.2c-0.1,0-0.1,0-0.2,0
		l-1.3,1C22,3.9,22,4.1,22.1,4.2c0,0,0,0,0,0c0,0,0,0,0,0c0,0,1-0.7,1.1-0.7c0,0,0,0.1,0.1,0.1c-0.1,0-1.1,0.7-1.1,0.7s0,0,0,0
		s0,0,0,0l0.1,0.2c0,0,0,0,0,0c0,0,1.1-0.6,1.1-0.7c0,0,0,0.1,0.1,0.1c-0.1,0-1.2,0.6-1.2,0.6s0,0,0,0c0,0,0,0,0,0
		c0.1,0.1,0.3,0.2,0.4,0.1l1.5-0.7c0.1,0,0.1-0.1,0.1-0.2c0-0.1,0-0.1,0-0.2c0,0-0.2-0.2-0.2-0.2l2.6-1.4c0.1,0,0.1-0.1,0.2-0.2
		c0-0.1,0-0.2-0.1-0.3l-0.1-0.1C26.7,1.4,26.7,1.4,26.6,1.4z M23.9,3.2C23.9,3.2,23.9,3.2,23.9,3.2L23.9,3.2l2.5-1.7
		c0,0,0.1,0,0.1,0c0.1,0,0.1,0,0.1,0.1l0.1,0.1c0,0.1,0,0.1,0,0.2c0,0,0,0.1-0.1,0.1l-2.6,1.4l0,0c0,0,0,0,0,0c0,0,0,0,0,0l0.2,0.2
		c0,0,0,0.1,0,0.2l0,0c0,0.1,0,0.1-0.1,0.1l-1.5,0.7c-0.1,0-0.2,0-0.3,0c0.1,0,1.2-0.6,1.2-0.6s0,0,0,0c0,0,0,0,0,0l-0.1-0.2
		c0,0,0,0,0,0c0,0,0,0,0,0c0,0-1.1,0.6-1.1,0.7c0,0-0.1-0.1-0.1-0.1c0.1,0,1.1-0.7,1.1-0.7s0,0,0,0c0,0,0,0,0,0l-0.1-0.1
		c0,0,0,0,0,0c0,0,0,0,0,0c0,0-1,0.7-1.1,0.7c0,0,0-0.1,0-0.2c0,0,0-0.1,0.1-0.1l1.3-1c0,0,0.1,0,0.2,0c0.1,0,0.1,0,0.1,0.1
		L23.9,3.2C23.9,3.2,23.9,3.2,23.9,3.2z"/>
	<g>
		<path class="st0" d="M38.4,3c-0.5,0.3-0.8,0.7-0.7,0.9c0.1,0.2,0.6,0,1.1-0.3c0.5-0.3,0.8-0.7,0.7-0.9C39.4,2.5,38.9,2.6,38.4,3z
			 M38.9,3.5c-0.4,0.3-0.8,0.4-0.9,0.2c-0.1-0.1,0.2-0.5,0.6-0.8s0.8-0.4,0.9-0.2C39.6,2.9,39.3,3.2,38.9,3.5z"/>
		<path class="st0" d="M38.2,2.6c-0.4,0.2-0.6,0.6-0.5,0.7c0.1,0.1,0.5,0,0.8-0.2c0.4-0.2,0.6-0.6,0.5-0.7C39,2.3,38.6,2.4,38.2,2.6
			z M38.6,3c-0.3,0.2-0.6,0.3-0.7,0.2c-0.1-0.1,0.1-0.4,0.5-0.6c0.3-0.2,0.6-0.3,0.7-0.2C39.1,2.6,38.9,2.8,38.6,3z"/>
		<path class="st0" d="M39.6,2.7l1.1,2.2l-1.1-2L39.6,2.7z"/>
		<path class="st0" d="M40.6,4.8c0,0.2-0.2,0.5-0.5,0.7c-0.3,0.2-0.6,0.3-0.8,0.2l-1.5-1.7c0,0,1.3,1.7,1.4,1.7
			c0.1,0.1,0.5,0,0.9-0.2S40.8,5,40.6,4.8C40.7,4.9,40.7,4.8,40.6,4.8z"/>
		<path class="st0" d="M37.7,3.3l0.4,0.3l-0.3-0.4L37.7,3.3z"/>
		<path class="st0" d="M39.1,2.4l0.3,0.5l-0.3-0.4V2.4z"/>
		<path class="st0" d="M38.1,3.7c0,0,0.4,0,0.8-0.3c0,0-0.5,0.3-0.9,0.2L38.1,3.7z"/>
		<path class="st0" d="M38.2,3c0,0,0,0.1-0.1,0.1c0,0-0.1,0-0.1,0c0,0,0-0.1,0.1-0.1C38.1,2.9,38.2,2.9,38.2,3z"/>
		<path class="st0" d="M38.8,2.6c0,0,0,0.1-0.1,0.1c0,0-0.1,0-0.1,0c0,0,0-0.1,0.1-0.1C38.7,2.5,38.8,2.5,38.8,2.6z"/>
		<path class="st0" d="M38.6,2.8c0,0,0,0.1-0.1,0.1c0,0-0.1,0-0.1,0c0,0,0-0.1,0.1-0.1C38.5,2.8,38.5,2.8,38.6,2.8z"/>
		<path class="st0" d="M38.5,2.7c0,0,0,0.1-0.1,0.1c0,0-0.1,0-0.1,0c0,0,0-0.1,0.1-0.1C38.4,2.7,38.5,2.7,38.5,2.7z"/>
		<path class="st0" d="M38.3,1.8l0.2,0.1l0-0.1l-0.1-0.1L38.3,1.8z"/>
		<path class="st0" d="M38.7,1.3l0.1,0.2c0.1,0,0.1-0.2,0.1-0.2L38.7,1.3z"/>
		<path class="st0" d="M39.1,1l0,0.2l0.1-0.1C39.3,0.9,39.1,1,39.1,1z"/>
		<path class="st0" d="M39.2,0.3v0.2c0.1,0,0.1,0,0.1,0l0-0.2L39.2,0.3z"/>
		<path class="st0" d="M39.8,1.3l0,0.2c0.1,0,0.2-0.2,0.2-0.2L39.8,1.3z"/>
		<path class="st0" d="M39.7,0.6l0.2,0.2L40,0.7C39.9,0.6,39.7,0.6,39.7,0.6z"/>
	</g>
	<g>
		<path class="st0" d="M1.3,4c0.1,0.1,0.3,0.1,0.5,0.1C1.9,4.2,2,4.3,2.1,4.4c0.6,0.2,1.2-0.1,1.5-0.7S3.5,2.3,3,2
			C2.9,2,2.8,2,2.6,2C2.6,1.9,2.5,1.9,2.4,1.8C1.8,1.6,1,1.9,0.7,2.5C0.5,3.1,0.7,3.8,1.3,4z M2.4,1.9C2.4,1.9,2.5,2,2.6,2
			c0.1,0,0.2,0,0.3,0.1C3.4,2.3,3.7,3,3.4,3.6C3.2,4.1,2.6,4.4,2.1,4.2C2,4.1,1.9,4,1.8,4c-0.1,0-0.3,0-0.4-0.1
			C0.9,3.7,0.7,3.1,0.9,2.5S1.9,1.7,2.4,1.9z"/>
		<path class="st0" d="M1.2,3.4c0.1,0.3,0.4,0.4,0.5,0.4C2,4.3,2.5,4.1,2.5,4.1c-0.2,0-0.4-0.2-0.4-0.2s0.2,0.1,0.5,0
			c0,0-0.1,0-0.4-0.1c0,0,0.1-0.1,0.1-0.3L2,3.6c0,0-0.2-0.1-0.3-0.3c0,0-0.1,0,0,0.2C1.5,3.6,1.2,3.4,1.2,3.4z"/>
		<path class="st0" d="M3,2.4c0.2,0.2,0.4,0.5,0.4,1C3.4,3.4,3.5,2.8,3,2.4L3,2.4z"/>
		<path class="st0" d="M2.9,2.4L2.9,2.4c0-0.1-0.1-0.2-0.2-0.2l0,0.1C2.6,2.2,2.8,2.3,2.9,2.4z"/>
	</g>
	<g>
		<path class="st0" d="M19.9,2.6c0-0.1-0.1-0.1-0.1-0.2C19.7,1.7,19.2,1.8,19,2c-0.2-0.7-0.7-0.5-0.8-0.4c0.2,0,0.6,0,0.8,0.4
			c0,0,0,0,0,0c0,0,0,0,0,0c0,0,0,0.1,0,0.1c0,0,0-0.1,0-0.1c0.2,0,0.6,0,0.8,0.4c-0.3-0.3-0.7-0.2-0.9-0.2
			c-0.1-0.2-0.3-0.6-0.9-0.6c0,0-0.6,0-0.7,0.7c0,0,0,0.6-0.1,0.9c0,0-0.4,0.7,0.1,0.9c0,0,0.2,0.2,0.5,0.1c0.1,0.3,0.4,0.4,0.4,0.4
			C18.6,4.9,19,4.2,19,4.2c0.2-0.2,0.7-0.6,0.7-0.6C20.2,3.1,19.9,2.6,19.9,2.6z M19.5,3.5c0,0-0.4,0.4-0.6,0.6c0,0-0.3,0.6-0.7,0.4
			c0,0-0.2,0-0.3-0.3c0.1,0,0.2,0,0.3-0.1c-0.2,0.1-0.4,0-0.4,0c-0.2-0.1-0.2-0.3-0.2-0.4c0,0.1,0,0.3,0.1,0.4
			c-0.3,0-0.4-0.1-0.4-0.1c-0.4-0.2-0.1-0.8-0.1-0.8c0-0.3,0.1-0.9,0.1-0.9c0.1-0.7,0.6-0.7,0.6-0.7c0.5-0.1,0.7,0.3,0.8,0.5
			c-0.2-0.1-0.4,0-0.5,0.1c0.3,0,0.7,0,0.9,0.6c0-0.4-0.2-0.5-0.3-0.6c0.2,0,0.6-0.1,0.9,0.4C19.7,2.7,20,3.1,19.5,3.5z"/>
		<path class="st0" d="M19.2,2.9L19.2,2.9L19.2,2.9L19.2,2.9z"/>
		<path class="st0" d="M19,2.1L19,2.1L19,2.1L19,2.1z"/>
		<path class="st0" d="M19.4,1.5c0,0-0.3,0-0.5,0.7c0,0,0.3-0.5,0.7-0.5C19.7,1.7,19.7,1.4,19.4,1.5z"/>
	</g>
	<g>
		<path class="st0" d="M12.9,2.7c0,0,0.8,0.7,1.4,0.8c0,0,0.2,0,0.3-0.4s0.2-0.7,0.3-0.9C14.9,2,15,1.5,15,1.5s0.2-0.4-0.2-0.2
			c0,0-0.5,0.3-0.9,0.5c-0.4,0.2-0.8,0.3-1,0.6C12.8,2.4,12.7,2.5,12.9,2.7z M13,2.4c0.2-0.2,0.5-0.3,0.9-0.5s0.8-0.5,0.8-0.5
			c0.4-0.2,0.2,0.1,0.2,0.1S14.7,2,14.7,2.2c0,0.2-0.2,0.4-0.2,0.8c-0.1,0.3-0.2,0.4-0.2,0.4C13.7,3.3,13,2.7,13,2.7
			C12.8,2.5,13,2.4,13,2.4z"/>
		<path class="st0" d="M14.3,3.7c0,0,0,1.3-0.2,1.3c0,0-1.1-0.3-1.6-1.2l0.2-1.2c0,0,0.1,0.2,0,0.9c0,0-0.1,0.2,0,0.3
			c0,0,0.4,0.7,1.2,0.9c0,0,0.2,0,0.2-0.3C14.2,4.4,14.3,3.4,14.3,3.7z"/>
		<path class="st0" d="M15,1.4c0,0,0,1.2,0,1.4c0,0-0.5,1.5-0.8,2c0,0-0.1,0.1,0.2-0.7C14.7,3.5,14.9,3,14.9,3S14.9,1.8,15,1.4z"/>
	</g>
	<g>
		<path class="st0" d="M35.1,2c0-0.4-0.4-0.9-1-0.9c-0.6,0-0.8-0.1-0.8-0.1s-0.3-0.3,0.1,0.5c0.4,0.9,1,0.9,1.3,0.9
			c0.3,0,0.5,0.1,0.5,0.1C35.2,2.4,35.1,2,35.1,2z M34.7,2.3c-0.2,0-0.7,0-1.1-0.7c-0.3-0.7-0.1-0.4-0.1-0.4s0.2,0.1,0.7,0.1
			C34.7,1.2,35,1.7,35,2c0,0,0,0.2,0.1,0.3c0,0-0.1-0.1-0.2-0.1c-0.2-0.4-0.3-0.8-0.3-0.8c0,0.4,0.2,0.6,0.2,0.7
			c-0.1,0-0.1-0.1-0.2-0.1c-0.2-0.3-0.3-0.6-0.3-0.6c0,0.2,0.1,0.4,0.2,0.5c-0.2-0.1-0.4-0.3-0.7-0.5c0,0,0.2,0.2,0.5,0.5l0,0
			c-0.2,0-0.5-0.1-0.5-0.1c0.1,0.1,0.4,0.2,0.5,0.2C34.3,2,34.4,2,34.5,2.1h0c-0.3,0.1-0.5,0-0.5,0c0.2,0.1,0.5,0.1,0.6,0.1
			c0.1,0.1,0.2,0.1,0.3,0.2C34.8,2.3,34.7,2.3,34.7,2.3z M35.1,2.4L35.1,2.4C35.1,2.4,35.1,2.4,35.1,2.4C35.1,2.4,35.1,2.4,35.1,2.4
			z"/>
		<path class="st0" d="M35.1,3.1c-0.3,0.1-0.8,0.6-0.6,1.2c0.2,0.6,0.1,0.8,0.1,0.8s-0.2,0.4,0.5-0.2c0.8-0.7,0.6-1.2,0.5-1.4
			c-0.1-0.3,0-0.5,0-0.5C35.4,3,35.1,3.1,35.1,3.1z M35.5,3.5c0,0.2,0.2,0.7-0.4,1.2c-0.6,0.5-0.4,0.2-0.4,0.2s0-0.2-0.1-0.7
			s0.2-0.9,0.5-1c0,0,0.2-0.1,0.3-0.2c0,0,0,0.1,0,0.3c-0.3,0.3-0.7,0.5-0.7,0.5c0.3-0.1,0.5-0.3,0.6-0.4c0,0.1,0,0.2-0.1,0.3
			C35,4,34.8,4.2,34.8,4.2C35,4.1,35.1,4,35.2,3.9c-0.1,0.2-0.2,0.5-0.3,0.8c0,0,0.2-0.2,0.3-0.6l0,0c0.1,0.2,0,0.5,0,0.5
			c0.1-0.2,0.1-0.4,0-0.6c0-0.1,0.1-0.2,0.1-0.3v0c0.1,0.2,0.1,0.5,0.1,0.5c0.1-0.2,0-0.5-0.1-0.6c0-0.1,0.1-0.2,0.1-0.3
			C35.5,3.4,35.5,3.4,35.5,3.5z M35.5,3.1L35.5,3.1C35.4,3.1,35.5,3.1,35.5,3.1C35.5,3,35.5,3.1,35.5,3.1z"/>
	</g>
	<g>
		<path class="st0" d="M25.1,9.5c0.1-0.4-0.1-0.9-0.5-1.2C24.4,8,24.1,8,23.8,8.1c-0.1,0-0.3,0.2-0.4,0.4c-0.1,0.2,0,0.3,0.1,0.4
			C23.5,9,23.6,9,23.6,9c0,0-0.1,0.1-0.1,0.1c-0.1,0.1-0.3,0.1-0.4,0.1c-0.2,0-0.3,0-0.3,0.1c0,0.1,0,0.2,0.1,0.3s0.2,0.3,0.3,0.3
			c0.1,0,0.2-0.1,0.3-0.2c0.1-0.1,0.2-0.2,0.3-0.2c0,0,0.1,0,0.1,0c0,0.1,0,0.3,0.1,0.4c0.1,0.1,0.2,0.2,0.3,0.2
			C24.7,10.1,25,9.8,25.1,9.5z M23.8,9C23.8,9,23.8,9,23.8,9L23.8,9c-0.1,0-0.2,0-0.3-0.1c-0.1-0.1-0.1-0.2-0.1-0.3
			c0.1-0.1,0.2-0.3,0.4-0.3c0.2-0.1,0.5,0,0.7,0.2C24.9,8.6,25,9.1,25,9.4c0,0.1,0,0.1-0.1,0.2c-0.1,0.2-0.3,0.3-0.6,0.3
			c-0.1,0-0.2-0.1-0.3-0.2C24,9.6,24,9.5,24,9.3v0h0c0,0-0.2,0.1-0.2,0.1c-0.1,0.1-0.2,0.1-0.3,0.2c-0.1,0.1-0.2,0.2-0.3,0.2
			c-0.1,0-0.1-0.1-0.2-0.2c-0.1-0.1-0.1-0.2,0-0.2c0-0.1,0.1-0.1,0.3-0.1c0.1,0,0.3-0.1,0.4-0.1C23.7,9.1,23.8,9,23.8,9L23.8,9
			C23.8,9,23.8,9,23.8,9z"/>
		<path class="st0" d="M23.8,9.3L23.8,9.3L23.8,9.3L23.8,9.3L23.8,9.3c0,0.1,0.2,0,0.4,0c0,0,0,0,0,0c0,0,0,0,0,0
			C24.1,9.2,23.8,9.3,23.8,9.3z"/>
		<path class="st0" d="M23.8,9.2L23.8,9.2L23.8,9.2c0,0,0.2-0.2,0.3-0.2l0,0v0l0,0h0C23.9,8.9,23.8,9.1,23.8,9.2L23.8,9.2
			C23.8,9.1,23.8,9.2,23.8,9.2z"/>
		<path class="st0" d="M23.8,9.2L23.8,9.2L23.8,9.2c0.1-0.1,0.4-0.2,0.4-0.2c0,0,0,0,0,0c0,0,0,0,0,0C24.2,9,23.9,9.1,23.8,9.2
			C23.8,9.2,23.8,9.2,23.8,9.2z"/>
	</g>
	<g>
		<path class="st0" d="M1.9,7.8C1.5,8.3,1.2,8.8,1.4,9s0.7-0.1,1.2-0.6c0.5-0.5,0.7-1,0.6-1.2C3,7,2.4,7.3,1.9,7.8z M2.5,8.3
			c-0.4,0.4-0.8,0.7-1,0.5C1.4,8.7,1.6,8.2,2,7.8c0.4-0.4,0.8-0.7,1-0.5C3.2,7.4,2.9,7.9,2.5,8.3z"/>
		<path class="st0" d="M3.1,7.2l2.2,2.5L3.2,7.4L3.1,7.2z"/>
		<path class="st0" d="M5.2,9.7c0.1,0.2-0.1,0.5-0.4,0.9C4.6,10.8,4.2,11,4,11L1.6,9.2c0,0,2.3,1.9,2.4,1.9c0.1,0.1,0.5-0.1,0.9-0.5
			C5.2,10.2,5.4,9.8,5.2,9.7C5.3,9.7,5.3,9.7,5.2,9.7z"/>
		<path class="st0" d="M1.9,6.3l0.5,1.5c0,0,0,0,0,0c0,0,0,0,0,0C2.4,7.8,2,6.5,1.9,6.3C2,6.4,2,6.4,2.1,6.4c0,0,0,0,0,0
			c0,0,0.1,0,0.1,0c0,0.2,0.4,1.3,0.4,1.3s0,0,0,0c0,0,0,0,0,0c0,0,0,0.1-0.1,0.1c0,0,0,0,0,0c0,0,0,0,0,0c0.1,0,0.1-0.1,0.1-0.1
			c0,0,0-0.1,0-0.1c0,0-0.4-1.4-0.4-1.4c0,0,0,0,0,0l0,0c0,0,0,0,0,0c0,0,0,0.1-0.1,0.1c0,0,0,0,0,0C2,6.3,2,6.3,1.9,6.3L1.9,6.3
			L1.9,6.3C1.9,6.3,1.9,6.3,1.9,6.3z"/>
		<path class="st0" d="M2.6,9.3c-0.1,0.3,0,0.7,0.2,0.8c0,0,0,0,0,0c0.1,0,0.3-0.3,0.3-0.4c0,0,0-0.1,0-0.1c0,0,0,0-0.1,0
			c0,0,0,0,0,0c0,0,0,0,0,0C3,9.8,2.8,10,2.8,10c0,0-0.1-0.1-0.1-0.1c-0.1-0.1-0.1-0.4,0-0.5c0.1-0.2,0.1-0.1,0.2-0.1c0,0,0,0,0.1,0
			c0,0,0,0,0-0.1C2.7,9.1,2.6,9.2,2.6,9.3z"/>
		<path class="st0" d="M3.2,9.1C3.1,9.2,3,9.3,3,9.3c0,0,0,0,0,0s0,0,0,0c0,0.1,0,0.3,0.1,0.4c0,0,0,0,0,0c0,0,0,0,0,0
			c0.1-0.1,0.2-0.4,0.2-0.6c0-0.1-0.1-0.1-0.1-0.2C3.2,9.1,3.2,9.1,3.2,9.1z M3.2,9.2C3.2,9.2,3.2,9.2,3.2,9.2
			C3.3,9.2,3.3,9.2,3.2,9.2C3.3,9.3,3.3,9.3,3.2,9.2c0.1,0.2,0,0.4,0,0.5C3.2,9.6,3.1,9.4,3.2,9.2C3.2,9.3,3.2,9.3,3.2,9.2L3.2,9.2
			C3.2,9.2,3.2,9.2,3.2,9.2z"/>
		<path class="st0" d="M3.3,8.8C3.3,8.8,3.3,8.9,3.3,8.8c0,0.2,0.1,0.3,0.1,0.4c0,0.1,0.1,0.2,0.1,0.4c0,0,0,0,0.1,0c0,0,0,0,0-0.1
			c0-0.1-0.1-0.2-0.1-0.4C3.5,9.1,3.4,9,3.3,8.8C3.4,8.8,3.4,8.8,3.3,8.8z"/>
		<path class="st0" d="M3.6,8.9c0,0.1,0,0.2-0.1,0.4c0,0.1,0,0.1,0,0.2c0,0,0,0,0,0.1c0,0,0,0,0.1,0c0-0.1,0-0.1,0-0.2
			c0-0.1,0.1-0.2,0.1-0.4C3.7,8.9,3.7,8.8,3.6,8.9C3.6,8.8,3.6,8.9,3.6,8.9z"/>
		<path class="st0" d="M3.6,9.3C3.5,9.3,3.6,9.3,3.6,9.3c0.1,0.1,0.1,0.1,0.2,0.1c0,0,0.1,0,0.1,0.1c0,0,0,0,0-0.1c0,0,0,0,0.1,0
			c0,0-0.1-0.1-0.1-0.1C3.7,9.3,3.7,9.3,3.6,9.3C3.6,9.3,3.6,9.3,3.6,9.3z"/>
		<path class="st0" d="M4,8.7C3.8,8.8,3.7,8.9,3.8,9.1c0,0.1,0.1,0.2,0.2,0.2c0,0,0.2,0,0.2-0.2c0,0,0,0,0-0.1c0,0,0,0-0.1,0
			C4.1,9.1,4,9.2,4,9.2c0,0,0,0-0.1,0c0,0,0,0,0,0C4,9,4.1,8.9,4,8.7C4,8.7,4,8.7,4,8.7C4,8.7,4,8.7,4,8.7z M3.8,9.1
			c0,0,0-0.2,0.1-0.2C4,9,3.9,9.1,3.8,9.1C3.9,9.1,3.8,9.1,3.8,9.1z"/>
		<path class="st0" d="M2.2,9c0,0,0.9-0.2,1.7-0.8L4,8.3C4,8.3,3.3,8.9,2.2,9z"/>
		<path class="st0" d="M3,10.1c0,0,0.9-0.4,1.4-1.2L4.5,9C4.5,9,4,9.7,3,10.1z"/>
	</g>
	<path class="st0" d="M27,7.4c0,0.1,0,0.2,0.1,0.2l2.2,2c0,0-0.2,0.1-0.2,0.1C29.1,9.8,29,9.8,29,9.9c0,0.1,0,0.1,0.1,0.2l1.3,1
		c0.1,0.1,0.3,0.1,0.4,0c0,0,0,0,0,0c0,0,0,0,0,0c0,0-0.9-0.9-1-0.9c0,0,0-0.1,0.1-0.1c0,0,0.9,0.9,0.9,0.9c0,0,0,0,0,0c0,0,0,0,0,0
		l0.2-0.2c0,0,0,0,0-0.1c0,0-0.9-0.9-0.9-0.9c0,0,0.1-0.1,0.1-0.1c0,0,0.9,1,0.9,1c0,0,0,0,0,0c0,0,0,0,0,0c0.1-0.1,0.1-0.3,0-0.4
		l-1-1.3C30.2,9,30.1,9,30,9S29.9,9,29.8,9c0,0-0.1,0.2-0.2,0.3l-1.9-2.2c0,0-0.2-0.1-0.2-0.1c-0.1,0-0.2,0.1-0.3,0.1l-0.1,0.1
		C27.1,7.2,27,7.3,27,7.4z M29.4,9.6C29.4,9.6,29.4,9.5,29.4,9.6L29.4,9.6l-2.2-2.1c0,0-0.1-0.1-0.1-0.1s0-0.1,0.1-0.2l0.1-0.1
		c0,0,0.1-0.1,0.2-0.1s0.1,0,0.1,0.1l2,2.3l0,0c0,0,0,0,0,0s0,0,0,0l0.2-0.2c0,0,0.1-0.1,0.1-0.1l0,0c0.1,0,0.1,0,0.1,0.1l1,1.3
		c0.1,0.1,0.1,0.2,0,0.3c-0.1-0.1-0.9-1-0.9-1c0,0,0,0,0,0c0,0,0,0,0,0l-0.1,0.1c0,0,0,0,0,0c0,0,0,0,0,0c0,0,0.9,0.9,0.9,0.9
		c0,0-0.1,0.1-0.1,0.1c0,0-0.9-0.9-0.9-0.9c0,0,0,0,0,0c0,0,0,0,0,0l-0.1,0.1c0,0,0,0,0,0c0,0,0,0,0,0c0,0,0.9,0.8,1,0.9
		c0,0-0.1,0.1-0.1,0.1c-0.1,0-0.1,0-0.2-0.1l-1.3-1c0,0-0.1-0.1-0.1-0.1c0-0.1,0-0.1,0.1-0.2L29.4,9.6C29.4,9.6,29.4,9.6,29.4,9.6z"
		/>
	<g>
		<path class="st0" d="M33.1,9.4c0,0.6,0.1,1.1,0.3,1.1c0.2,0,0.4-0.5,0.4-1.1s-0.1-1.1-0.3-1.1C33.3,8.4,33.1,8.8,33.1,9.4z
			 M33.8,9.4c0,0.5-0.2,0.9-0.3,0.9c-0.2,0-0.3-0.4-0.3-0.9c0-0.5,0.2-0.9,0.3-0.9C33.7,8.5,33.8,8.9,33.8,9.4z"/>
		<path class="st0" d="M32.7,9.4c0,0.5,0.1,0.8,0.3,0.8c0.2,0,0.3-0.4,0.3-0.8c0-0.5-0.1-0.8-0.3-0.8C32.9,8.6,32.7,9,32.7,9.4z
			 M33.3,9.4c0,0.4-0.1,0.7-0.2,0.7c-0.1,0-0.2-0.3-0.2-0.7c0-0.4,0.1-0.7,0.2-0.7C33.2,8.7,33.3,9,33.3,9.4z"/>
		<path class="st0" d="M33.5,8.4L36,8.7l-2.3-0.2L33.5,8.4z"/>
		<path class="st0" d="M35.9,8.7c0.2,0.1,0.3,0.4,0.3,0.8c0,0.4-0.1,0.7-0.3,0.7l-2.2,0.3c0,0,2.2-0.1,2.2-0.1
			c0.2,0,0.3-0.4,0.3-0.8S36.1,8.7,35.9,8.7C35.9,8.7,35.9,8.7,35.9,8.7z"/>
		<path class="st0" d="M33,10.2l0.5-0.1l-0.4,0L33,10.2z"/>
		<path class="st0" d="M33,8.6l0.6,0.1l-0.4,0L33,8.6z"/>
		<path class="st0" d="M33.5,10.1c0,0,0.3-0.3,0.2-0.8c0,0,0,0.6-0.3,0.9L33.5,10.1z"/>
		<path class="st0" d="M32.9,9.6c0,0,0,0.1,0.1,0.1c0,0.1,0,0.1,0,0.1c0,0,0-0.1-0.1-0.1C32.9,9.7,32.9,9.6,32.9,9.6z"/>
		<path class="st0" d="M33,8.9c0,0,0,0.1,0.1,0.1c0,0.1,0,0.1,0,0.1c0,0,0-0.1-0.1-0.1C32.9,9,32.9,8.9,33,8.9z"/>
		<path class="st0" d="M33.1,9.3c0,0,0,0.1,0.1,0.1c0,0.1,0,0.1,0,0.1c0,0,0-0.1-0.1-0.1C33,9.3,33,9.3,33.1,9.3z"/>
		<path class="st0" d="M32.9,9.3c0,0,0,0.1,0.1,0.1c0,0.1,0,0.1,0,0.1c0,0,0-0.1-0.1-0.1C32.8,9.3,32.9,9.2,32.9,9.3z"/>
		<path class="st0" d="M32.1,8.9l0.2-0.1l-0.1-0.1l-0.2,0L32.1,8.9z"/>
		<path class="st0" d="M31.9,8.3l0.3,0c0-0.1-0.1-0.2-0.1-0.2L31.9,8.3z"/>
		<path class="st0" d="M31.9,7.7l0.2,0.1l0-0.2C31.9,7.6,31.9,7.7,31.9,7.7z"/>
		<path class="st0" d="M31.3,7.3l0.1,0.1c0.1-0.1,0.1-0.1,0.1-0.1l-0.1-0.1L31.3,7.3z"/>
		<path class="st0" d="M32.5,7.4l0.2,0.2c0.1-0.1,0-0.2,0-0.2L32.5,7.4z"/>
		<path class="st0" d="M31.9,7.1l0.3,0l0-0.2C31.9,6.9,31.9,7.1,31.9,7.1z"/>
	</g>
	<g>
		<path class="st0" d="M9.8,8.3c-0.2,0-0.3,0-0.5,0C9.2,8.3,9.1,8.2,9,8.2c-0.6-0.1-1.2,0.3-1.3,1c-0.1,0.6,0.4,1.4,1,1.5
			c0.1,0,0.2,0,0.3,0c0.1,0.1,0.2,0.1,0.3,0.1c0.6,0.1,1.3-0.4,1.5-1C10.8,9.1,10.4,8.5,9.8,8.3z M9.2,10.6c-0.1,0-0.2-0.1-0.3-0.1
			c-0.1,0-0.2,0-0.3,0c-0.5-0.1-1-0.8-0.9-1.3c0.1-0.6,0.6-1,1.2-0.9c0.1,0,0.3,0.1,0.4,0.2c0.1,0,0.3,0,0.4,0
			c0.5,0.1,0.9,0.6,0.8,1.2C10.4,10.3,9.8,10.8,9.2,10.6z"/>
		<path class="st0" d="M10,8.9C9.9,8.6,9.6,8.6,9.4,8.6C9,8.3,8.6,8.5,8.6,8.5c0.2,0,0.4,0.1,0.4,0.1S8.8,8.5,8.5,8.8
			c0,0,0.1-0.1,0.4,0c0,0-0.1,0.1-0.1,0.3l0.3-0.2c0,0,0.2,0.1,0.4,0.2c0,0,0-0.1-0.1-0.2C9.7,8.8,10,8.9,10,8.9z"/>
		<path class="st0" d="M8.5,10.2C8.3,10.1,8,9.9,7.9,9.4C7.9,9.4,7.9,10,8.5,10.2L8.5,10.2z"/>
		<path class="st0" d="M8.6,10.3L8.6,10.3c0,0.1,0.1,0.1,0.2,0.2l0-0.1C8.9,10.4,8.8,10.4,8.6,10.3z"/>
	</g>
	<g>
		<path class="st0" d="M14.1,7.6c-0.1,0-0.1,0-0.2,0.1c-0.8-0.1-0.7,0.4-0.7,0.7c-0.7,0-0.6,0.5-0.6,0.7c0-0.2,0.1-0.6,0.6-0.7
			c0,0,0,0,0,0c0,0,0,0,0-0.1c0,0,0.1,0,0.1,0c0,0-0.1,0-0.1,0c0-0.2,0.1-0.6,0.6-0.6c-0.4,0.2-0.4,0.6-0.4,0.8
			c-0.2,0-0.7,0.2-0.8,0.8c0,0-0.1,0.6,0.6,0.8c0,0,0.6,0.2,0.9,0.3c0,0,0.5,0.5,0.9,0.1c0,0,0.2-0.1,0.2-0.5
			c0.3-0.1,0.5-0.3,0.5-0.3c0.3-0.4-0.2-0.9-0.2-0.9C15.3,8.6,15,8.1,15,8.1C14.7,7.4,14.1,7.6,14.1,7.6z M15,8.2
			c0,0,0.3,0.5,0.4,0.8c0,0,0.5,0.4,0.2,0.8c0,0-0.1,0.2-0.3,0.2c0-0.1,0.1-0.2,0-0.4c0,0.2-0.1,0.3-0.1,0.3
			c-0.2,0.2-0.3,0.2-0.5,0.1c0.1,0.1,0.3,0.1,0.5,0c0,0.3-0.2,0.4-0.2,0.4c-0.3,0.3-0.8-0.1-0.8-0.1c-0.2-0.1-0.8-0.3-0.8-0.3
			c-0.6-0.2-0.5-0.8-0.5-0.8c0-0.5,0.5-0.6,0.6-0.7c-0.1,0.2-0.1,0.4-0.1,0.5c0-0.3,0.2-0.7,0.8-0.7c-0.4,0-0.6,0-0.7,0.1
			c0-0.2,0.1-0.6,0.6-0.7C14.1,7.8,14.6,7.6,15,8.2z"/>
		<path class="st0" d="M14.2,8.4L14.2,8.4L14.2,8.4L14.2,8.4z"/>
		<path class="st0" d="M13.4,8.4L13.4,8.4L13.4,8.4L13.4,8.4z"/>
		<path class="st0" d="M12.9,7.8c0,0,0,0.3,0.6,0.7c0,0-0.4-0.4-0.3-0.9C13.2,7.6,12.9,7.5,12.9,7.8z"/>
	</g>
	<g>
		<path class="st0" d="M20.4,8.9c0,0-1-0.2-1.6,0c0,0-0.2,0.1,0,0.5s0.1,0.7,0.2,0.9c0.1,0.2,0.2,0.7,0.2,0.7s0,0.5,0.3,0
			c0,0,0.3-0.5,0.5-0.9c0.2-0.4,0.5-0.6,0.6-1C20.6,9.1,20.7,9,20.4,8.9z M20.5,9.2c-0.1,0.3-0.3,0.5-0.5,0.9
			c-0.2,0.4-0.4,0.8-0.4,0.8c-0.2,0.4-0.2,0-0.2,0s-0.1-0.4-0.2-0.6c0-0.2-0.1-0.5-0.2-0.8c-0.1-0.3,0-0.4,0-0.4
			c0.5-0.2,1.4,0,1.4,0C20.5,9.1,20.5,9.2,20.5,9.2z"/>
		<path class="st0" d="M18.7,8.8c0,0-0.7-1.1-0.5-1.2c0,0,1.1-0.3,1.9,0.3L20.6,9c0,0-0.2-0.1-0.5-0.8c0,0,0-0.2-0.2-0.3
			c0,0-0.7-0.4-1.5-0.1c0,0-0.2,0.1,0,0.4C18.5,8.1,18.8,9,18.7,8.8z"/>
		<path class="st0" d="M19.2,11.1c0,0-0.6-1-0.7-1.2c0,0-0.3-1.6-0.3-2.1c0,0,0-0.1,0.2,0.7c0.1,0.7,0.2,1.3,0.2,1.3
			S19.1,10.7,19.2,11.1z"/>
	</g>
	<g>
		<path class="st0" d="M38.2,9.1c-0.3,0.2-0.7,0.7-0.5,1.2c0.2,0.6,0.2,0.8,0.2,0.8s-0.2,0.4,0.4-0.3c0.7-0.7,0.5-1.3,0.4-1.5
			c-0.1-0.3-0.1-0.5-0.1-0.5C38.5,9,38.2,9.1,38.2,9.1z M38.6,9.5c0.1,0.2,0.3,0.6-0.3,1.3c-0.5,0.6-0.4,0.2-0.4,0.2s0-0.2-0.2-0.7
			c-0.2-0.5,0.1-0.9,0.4-1c0,0,0.2-0.1,0.3-0.2c0,0.1,0,0.1,0,0.3c-0.3,0.4-0.6,0.6-0.6,0.6c0.3-0.2,0.5-0.4,0.6-0.5
			c0,0.1,0,0.2,0,0.3C38.2,10,38,10.2,38,10.2c0.2-0.1,0.3-0.2,0.4-0.3c-0.1,0.2-0.1,0.5-0.3,0.8c0,0,0.1-0.2,0.3-0.6l0,0
			c0.1,0.2,0,0.5,0,0.5c0.1-0.2,0-0.4,0-0.6c0-0.1,0.1-0.2,0.1-0.3v0c0.2,0.2,0.2,0.5,0.2,0.5c0-0.2-0.1-0.5-0.1-0.6
			c0-0.1,0-0.2,0.1-0.4C38.6,9.3,38.6,9.4,38.6,9.5z M38.5,9.1L38.5,9.1C38.5,9,38.5,9,38.5,9.1C38.5,9,38.5,9,38.5,9.1z"/>
		<path class="st0" d="M39.2,8.8C39.5,9,40,9.3,40.5,8.9c0.5-0.4,0.7-0.4,0.7-0.4s0.4,0.1-0.4-0.4c-0.9-0.5-1.4-0.1-1.6,0
			c-0.3,0.2-0.5,0.2-0.5,0.2C39,8.5,39.2,8.8,39.2,8.8z M39.4,8.3c0.2-0.1,0.5-0.5,1.3,0c0.7,0.4,0.3,0.3,0.3,0.3s-0.2,0-0.6,0.3
			C40,9.2,39.6,9,39.3,8.7c0,0-0.1-0.1-0.2-0.2c0,0,0.1,0,0.3,0c0.4,0.2,0.7,0.4,0.7,0.4c-0.3-0.3-0.5-0.4-0.6-0.5
			c0.1,0,0.2,0,0.3,0c0.3,0.1,0.6,0.3,0.6,0.3c-0.2-0.2-0.3-0.2-0.4-0.3c0.2,0,0.5,0,0.9,0c0,0-0.3-0.1-0.7-0.1l0,0
			c0.2-0.1,0.4-0.2,0.4-0.2c-0.2,0-0.4,0.1-0.5,0.2c-0.1,0-0.2,0-0.3,0h0c0.2-0.2,0.4-0.3,0.4-0.3c-0.2,0-0.4,0.2-0.5,0.3
			c-0.1,0-0.2,0-0.4,0C39.3,8.3,39.4,8.3,39.4,8.3z M39.1,8.5L39.1,8.5C39,8.5,39,8.5,39.1,8.5C39,8.5,39,8.5,39.1,8.5z"/>
	</g>
	<g>
		<path class="st0" d="M31.2,15c0.1-0.4-0.1-0.9-0.5-1.2c-0.2-0.2-0.5-0.3-0.8-0.2c-0.1,0-0.3,0.2-0.4,0.4c-0.1,0.2,0,0.3,0.1,0.4
			c0.1,0.1,0.1,0.1,0.2,0.1c0,0-0.1,0.1-0.1,0.1c-0.1,0.1-0.3,0.1-0.4,0.1c-0.2,0-0.3,0-0.3,0.1c0,0.1,0,0.2,0.1,0.3
			c0.1,0.2,0.2,0.3,0.3,0.3c0.1,0,0.2-0.1,0.3-0.2c0.1-0.1,0.2-0.2,0.3-0.2c0,0,0.1,0,0.1,0c0,0.1,0,0.3,0.1,0.4
			c0.1,0.1,0.2,0.2,0.3,0.2C30.9,15.5,31.2,15.2,31.2,15z M30,14.4C30,14.4,30,14.4,30,14.4L30,14.4c-0.1,0-0.2,0-0.3-0.1
			c-0.1-0.1-0.1-0.2-0.1-0.3c0.1-0.1,0.2-0.3,0.4-0.3c0.2-0.1,0.5,0,0.7,0.2c0.3,0.3,0.5,0.7,0.4,1.1c0,0.1,0,0.1-0.1,0.2
			c-0.1,0.2-0.3,0.3-0.6,0.3c-0.1,0-0.2-0.1-0.3-0.2c-0.1-0.1-0.1-0.3-0.1-0.4v0h0c0,0-0.2,0.1-0.2,0.1c-0.1,0.1-0.2,0.1-0.3,0.2
			c-0.1,0.1-0.2,0.2-0.3,0.2c-0.1,0-0.1-0.1-0.2-0.2c-0.1-0.1-0.1-0.2,0-0.2c0-0.1,0.1-0.1,0.3-0.1c0.1,0,0.3-0.1,0.4-0.1
			C29.8,14.6,29.9,14.5,30,14.4L30,14.4C30,14.4,30,14.4,30,14.4z"/>
		<path class="st0" d="M30,14.7L30,14.7L30,14.7L30,14.7L30,14.7c0,0.1,0.2,0,0.4,0c0,0,0,0,0,0c0,0,0,0,0,0
			C30.2,14.6,30,14.7,30,14.7z"/>
		<path class="st0" d="M30,14.6L30,14.6L30,14.6c0,0,0.2-0.2,0.3-0.2l0,0v0l0,0h0C30.1,14.4,29.9,14.6,30,14.6L30,14.6
			C29.9,14.6,29.9,14.6,30,14.6z"/>
		<path class="st0" d="M30,14.7L30,14.7L30,14.7c0.1-0.1,0.4-0.2,0.4-0.2c0,0,0,0,0,0c0,0,0,0,0,0C30.4,14.5,30.1,14.6,30,14.7
			C30,14.7,30,14.7,30,14.7z"/>
	</g>
	<g>
		<path class="st0" d="M20.8,13.1c-0.5-0.5-1.1-0.7-1.2-0.5c-0.2,0.2,0.1,0.7,0.7,1.1c0.5,0.5,1.1,0.7,1.2,0.5
			C21.6,14.1,21.4,13.6,20.8,13.1z M20.4,13.7c-0.4-0.4-0.7-0.8-0.6-0.9c0.1-0.1,0.6,0.1,1,0.4c0.4,0.4,0.7,0.8,0.6,0.9
			C21.3,14.3,20.8,14.1,20.4,13.7z"/>
		<path class="st0" d="M21.5,14.3l-2.4,2.3l2.2-2.2L21.5,14.3z"/>
		<path class="st0" d="M19.1,16.5c-0.2,0.1-0.6,0-0.9-0.3c-0.3-0.3-0.5-0.6-0.5-0.8l1.7-2.5c0,0-1.8,2.4-1.8,2.4
			c-0.1,0.1,0.1,0.5,0.5,0.9C18.5,16.5,19,16.7,19.1,16.5C19.1,16.5,19.1,16.5,19.1,16.5z"/>
		<path class="st0" d="M22.3,13l-1.5,0.5c0,0,0,0,0,0c0,0,0,0,0,0C20.8,13.6,22.1,13.2,22.3,13c0,0.1-0.1,0.1-0.1,0.2c0,0,0,0,0,0
			c0,0,0,0,0,0.1c-0.2,0-1.3,0.5-1.3,0.5s0,0,0,0c0,0,0,0,0,0s-0.1,0-0.1-0.1c0,0,0,0,0,0c0,0,0,0,0,0c0,0.1,0.1,0.1,0.2,0.1
			c0,0,0.1,0,0.1,0c0,0,1.4-0.5,1.4-0.5c0,0,0,0,0,0l0,0c0,0,0,0,0,0c0,0-0.1,0-0.1-0.1c0,0,0,0,0,0C22.3,13.1,22.3,13.1,22.3,13
			L22.3,13L22.3,13C22.3,13,22.3,13,22.3,13z"/>
		<path class="st0" d="M19.3,13.8c-0.3-0.1-0.7,0-0.8,0.2c0,0,0,0,0,0c0,0.1,0.3,0.3,0.4,0.3c0,0,0,0,0,0c0,0,0,0,0,0c0,0,0,0,0,0
			c0,0,0,0,0,0c-0.1,0-0.2-0.1-0.3-0.2c0,0,0.1-0.1,0.1-0.1c0.1-0.1,0.4-0.1,0.5,0s0.1,0.1,0.1,0.2s0,0,0,0.1c0,0,0,0,0.1,0
			C19.5,14,19.5,13.9,19.3,13.8z"/>
		<path class="st0" d="M19.6,14.4c0-0.1-0.2-0.1-0.2-0.1s0,0,0,0c0,0,0,0,0,0c-0.1,0-0.3,0-0.4,0.1c0,0,0,0,0,0c0,0,0,0,0,0
			c0.1,0.1,0.4,0.2,0.6,0.1c0.1,0,0.1-0.1,0.1-0.1C19.6,14.5,19.6,14.4,19.6,14.4z M19.5,14.4C19.5,14.5,19.5,14.5,19.5,14.4
			C19.5,14.5,19.5,14.5,19.5,14.4C19.4,14.5,19.4,14.5,19.5,14.4c-0.2,0.1-0.4,0.1-0.5,0C19.1,14.4,19.3,14.4,19.5,14.4
			C19.4,14.4,19.4,14.4,19.5,14.4L19.5,14.4C19.5,14.4,19.5,14.4,19.5,14.4z"/>
		<path class="st0" d="M19.9,14.6C19.9,14.5,19.8,14.5,19.9,14.6c-0.2,0-0.3,0.1-0.4,0.1s-0.2,0.1-0.4,0.1c0,0,0,0,0,0.1
			c0,0,0,0,0.1,0c0.1,0,0.2-0.1,0.3-0.1C19.6,14.7,19.7,14.7,19.9,14.6C19.9,14.6,19.9,14.6,19.9,14.6z"/>
		<path class="st0" d="M19.8,14.8c-0.1,0-0.2,0-0.4,0c-0.1,0-0.1,0-0.2,0c0,0,0,0,0,0c0,0,0,0,0,0c0.1,0,0.1,0,0.2,0
			C19.6,14.9,19.7,14.9,19.8,14.8C19.9,14.9,19.9,14.9,19.8,14.8C19.9,14.9,19.9,14.8,19.8,14.8z"/>
		<path class="st0" d="M19.4,14.8C19.4,14.8,19.4,14.8,19.4,14.8c-0.1,0.1-0.1,0.1-0.1,0.2c0,0,0,0.1-0.1,0.1c0,0,0,0,0.1,0
			c0,0,0,0,0,0.1c0,0,0-0.1,0.1-0.1C19.4,15,19.4,14.9,19.4,14.8C19.5,14.8,19.4,14.8,19.4,14.8z"/>
		<path class="st0" d="M20,15.2C20,15.1,19.8,15,19.6,15c-0.1,0-0.2,0.1-0.2,0.2c0,0,0,0.2,0.2,0.2c0,0,0,0,0.1,0c0,0,0,0,0-0.1
			c-0.1,0-0.1-0.1-0.1-0.1c0,0,0,0,0-0.1c0,0,0,0,0,0C19.7,15.3,19.9,15.3,20,15.2C20,15.3,20,15.2,20,15.2C20,15.2,20,15.2,20,15.2
			z M19.7,15.1c0,0,0.2,0,0.2,0.1C19.8,15.2,19.7,15.1,19.7,15.1C19.6,15.1,19.6,15.1,19.7,15.1z"/>
		<path class="st0" d="M19.6,13.4c0,0,0.3,0.9,0.9,1.7l-0.1,0.1C20.4,15.2,19.8,14.5,19.6,13.4z"/>
		<path class="st0" d="M18.6,14.3c0,0,0.5,0.8,1.3,1.4l-0.1,0.1C19.8,15.8,19,15.3,18.6,14.3z"/>
	</g>
	<path class="st0" d="M38.2,17.1c0.1,0,0.1-0.1,0.2-0.1l1.5-2.6c0,0,0.2,0.1,0.2,0.1c0.1,0,0.2,0.1,0.2,0.1c0.1,0,0.1-0.1,0.2-0.1
		l0.7-1.5c0.1-0.1,0-0.3-0.1-0.4c0,0,0,0,0,0s0,0,0,0c0,0-0.7,1.1-0.7,1.1c0,0-0.1,0-0.1-0.1c0-0.1,0.7-1.1,0.7-1.1c0,0,0,0,0,0
		c0,0,0,0,0,0l-0.2-0.1c0,0,0,0,0,0c0,0-0.7,1-0.7,1.1c0,0-0.1,0-0.1-0.1c0-0.1,0.8-1,0.8-1c0,0,0,0,0,0c0,0,0,0,0,0
		c-0.1-0.1-0.3,0-0.4,0.1l-1.1,1.2c0,0.1-0.1,0.1-0.1,0.2c0,0.1,0.1,0.1,0.1,0.2c0,0,0.2,0.1,0.3,0.1l-1.8,2.3
		c0,0.1-0.1,0.2-0.1,0.2c0,0.1,0.1,0.2,0.2,0.2L38,17C38.1,17.1,38.2,17.1,38.2,17.1z M39.9,14.3C39.9,14.3,39.9,14.3,39.9,14.3
		L39.9,14.3l-1.6,2.6c0,0-0.1,0.1-0.1,0.1c-0.1,0-0.1,0-0.2,0l-0.1-0.1c-0.1,0-0.1-0.1-0.1-0.2c0,0,0-0.1,0-0.1l1.8-2.4l0,0
		c0,0,0,0,0,0c0,0,0,0,0,0l-0.3-0.1c0,0-0.1-0.1-0.1-0.1l0,0c0-0.1,0-0.1,0-0.2l1-1.2c0.1-0.1,0.2-0.1,0.3-0.1c0,0.1-0.8,1-0.8,1
		c0,0,0,0,0,0l0,0l0.1,0.1c0,0,0,0,0,0l0,0c0,0,0.7-1,0.7-1.1c0,0,0.1,0.1,0.1,0.1c0,0.1-0.7,1.1-0.7,1.1c0,0,0,0,0,0c0,0,0,0,0,0
		l0.2,0.1c0,0,0,0,0,0s0,0,0,0s0.6-1,0.7-1.1c0,0,0.1,0.1,0.1,0.1s0,0.1,0,0.2l-0.7,1.4c0,0.1-0.1,0.1-0.1,0.1c-0.1,0-0.1,0-0.2,0
		L39.9,14.3C39.9,14.3,39.9,14.3,39.9,14.3z"/>
	<g>
		<path class="st0" d="M26.7,14.6c0.2-0.5,0.3-1,0.1-1.1c-0.2-0.1-0.5,0.3-0.8,0.8s-0.3,1-0.1,1.1C26.1,15.5,26.5,15.1,26.7,14.6z
			 M26.1,14.3c0.2-0.5,0.5-0.8,0.6-0.7c0.2,0.1,0.1,0.5-0.1,1c-0.2,0.5-0.5,0.8-0.6,0.7C25.8,15.2,25.9,14.8,26.1,14.3z"/>
		<path class="st0" d="M27.1,14.7c0.2-0.4,0.2-0.8,0.1-0.9s-0.4,0.2-0.6,0.6c-0.2,0.4-0.2,0.8-0.1,0.9
			C26.6,15.4,26.9,15.1,27.1,14.7z M26.6,14.5c0.2-0.4,0.4-0.6,0.5-0.5c0.1,0.1,0.1,0.4-0.1,0.7c-0.2,0.4-0.4,0.6-0.5,0.5
			C26.4,15.2,26.4,14.9,26.6,14.5z"/>
		<path class="st0" d="M26,15.4l-2.2-1.2l2.1,1.1L26,15.4z"/>
		<path class="st0" d="M23.9,14.2c-0.1-0.1-0.1-0.5,0-0.8c0.1-0.3,0.4-0.6,0.5-0.6l2.1,0.6c0,0-2.1-0.7-2.1-0.7
			c-0.1-0.1-0.4,0.2-0.6,0.6C23.7,13.7,23.7,14.1,23.9,14.2C23.8,14.2,23.8,14.2,23.9,14.2z"/>
		<path class="st0" d="M27.2,13.8l-0.5-0.1l0.4,0.2L27.2,13.8z"/>
		<path class="st0" d="M26.5,15.4L26,15.1l0.4,0.2L26.5,15.4z"/>
		<path class="st0" d="M26.6,13.8c0,0-0.4,0.2-0.5,0.7c0,0,0.2-0.5,0.6-0.7L26.6,13.8z"/>
		<path class="st0" d="M27,14.4c0,0,0-0.1,0-0.1c0-0.1,0.1-0.1,0.1-0.1c0,0,0,0.1,0,0.1C27,14.4,27,14.4,27,14.4z"/>
		<path class="st0" d="M26.7,15.1c0,0,0-0.1,0-0.1c0-0.1,0.1-0.1,0.1-0.1c0,0,0,0.1,0,0.1C26.7,15,26.7,15.1,26.7,15.1z"/>
		<path class="st0" d="M26.7,14.7c0,0,0-0.1,0-0.1c0-0.1,0.1-0.1,0.1-0.1c0,0,0,0.1,0,0.1S26.7,14.7,26.7,14.7z"/>
		<path class="st0" d="M26.9,14.8c0,0,0-0.1,0-0.1c0-0.1,0.1-0.1,0.1-0.1c0,0,0,0.1,0,0.1C26.9,14.8,26.9,14.8,26.9,14.8z"/>
		<path class="st0" d="M27.5,15.5l-0.2,0l0,0.1l0.2,0L27.5,15.5z"/>
		<path class="st0" d="M27.4,16.1l-0.2-0.1c-0.1,0.1,0,0.2,0,0.2L27.4,16.1z"/>
		<path class="st0" d="M27.2,16.6l-0.2-0.2L27,16.6C27.1,16.7,27.2,16.6,27.2,16.6z"/>
		<path class="st0" d="M27.6,17.2L27.5,17c-0.1,0.1-0.1,0.1-0.1,0.1l0.1,0.2L27.6,17.2z"/>
		<path class="st0" d="M26.5,16.7l-0.1-0.2c-0.1,0-0.1,0.2-0.1,0.2L26.5,16.7z"/>
		<path class="st0" d="M27,17.2l-0.3-0.1l0,0.2C26.8,17.3,27,17.2,27,17.2z"/>
	</g>
	<g>
		<path class="st0" d="M12.6,15.3c0.1,0.1,0.3,0.1,0.5,0.1c0.1,0.1,0.2,0.2,0.4,0.3c0.6,0.2,1.2-0.1,1.5-0.7
			c0.3-0.6-0.1-1.4-0.6-1.7c-0.1,0-0.2-0.1-0.3-0.1c-0.1-0.1-0.2-0.1-0.3-0.2c-0.6-0.2-1.4,0.1-1.7,0.7C11.7,14.4,12,15.1,12.6,15.3
			z M13.6,13.2c0.1,0,0.2,0.1,0.2,0.2c0.1,0,0.2,0,0.3,0.1c0.5,0.2,0.8,0.9,0.6,1.5c-0.2,0.5-0.8,0.8-1.3,0.6
			c-0.1,0-0.2-0.1-0.3-0.2c-0.1,0-0.3,0-0.4-0.1c-0.5-0.2-0.7-0.8-0.5-1.3C12.4,13.3,13.1,13,13.6,13.2z"/>
		<path class="st0" d="M12.5,14.7c0.1,0.3,0.4,0.4,0.5,0.4c0.3,0.4,0.7,0.3,0.7,0.3c-0.2,0-0.4-0.2-0.4-0.2s0.2,0.1,0.5,0
			c0,0-0.1,0-0.4-0.1c0,0,0.1-0.1,0.1-0.3l-0.4,0.1c0,0-0.2-0.1-0.3-0.3c0,0-0.1,0,0,0.2C12.8,14.9,12.5,14.7,12.5,14.7z"/>
		<path class="st0" d="M14.2,13.7c0.2,0.2,0.4,0.5,0.4,1C14.7,14.7,14.7,14.1,14.2,13.7L14.2,13.7z"/>
		<path class="st0" d="M14.1,13.7L14.1,13.7c0-0.1-0.1-0.2-0.2-0.2l0,0.1C13.9,13.5,14,13.6,14.1,13.7z"/>
	</g>
	<g>
		<path class="st0" d="M36.1,14c0-0.1-0.1-0.1-0.1-0.2c-0.1-0.8-0.6-0.6-0.8-0.5c-0.2-0.7-0.7-0.5-0.8-0.4c0.2,0,0.6,0,0.8,0.4
			c0,0,0,0,0,0c0,0,0,0,0,0c0,0,0,0.1,0,0.1c0,0,0-0.1,0-0.1c0.2,0,0.6,0,0.8,0.4c-0.3-0.3-0.7-0.2-0.9-0.2C35,13.4,34.7,13,34.1,13
			c0,0-0.6,0-0.7,0.7c0,0,0,0.6-0.1,0.9c0,0-0.4,0.7,0.1,0.9c0,0,0.2,0.2,0.5,0.1c0.1,0.3,0.4,0.4,0.4,0.4c0.5,0.2,0.8-0.4,0.8-0.4
			c0.2-0.2,0.7-0.6,0.7-0.6C36.5,14.5,36.1,14,36.1,14z M35.7,15c0,0-0.4,0.4-0.6,0.6c0,0-0.3,0.6-0.7,0.4c0,0-0.2,0-0.3-0.3
			c0.1,0,0.2,0,0.3-0.1c-0.2,0.1-0.4,0-0.4,0c-0.2-0.1-0.2-0.3-0.2-0.4c0,0.1,0,0.3,0.1,0.4c-0.3,0-0.4-0.1-0.4-0.1
			c-0.4-0.2-0.1-0.8-0.1-0.8c0-0.3,0.1-0.9,0.1-0.9c0.1-0.7,0.6-0.7,0.6-0.7c0.5-0.1,0.7,0.3,0.8,0.5c-0.2-0.1-0.4,0-0.5,0.1
			c0.3,0,0.7,0,0.9,0.6c0-0.4-0.2-0.5-0.3-0.6c0.2,0,0.6-0.1,0.9,0.4C35.9,14.1,36.3,14.5,35.7,15z"/>
		<path class="st0" d="M35.4,14.3L35.4,14.3L35.4,14.3L35.4,14.3z"/>
		<path class="st0" d="M35.2,13.5L35.2,13.5L35.2,13.5L35.2,13.5z"/>
		<path class="st0" d="M35.6,12.9c0,0-0.3,0-0.5,0.7c0,0,0.3-0.5,0.7-0.5C35.9,13.1,35.9,12.8,35.6,12.9z"/>
	</g>
	<g>
		<path class="st0" d="M1.6,15.5c0,0,0.9-0.6,1.1-1.1c0,0,0-0.2-0.3-0.4c-0.4-0.2-0.6-0.4-0.8-0.5C1.5,13.4,1,13.2,1,13.2
			s-0.4-0.3-0.2,0.2c0,0,0.1,0.5,0.3,1c0.1,0.5,0.1,0.8,0.2,1.2C1.3,15.5,1.3,15.7,1.6,15.5z M1.3,15.3c-0.1-0.3-0.1-0.6-0.2-1
			c-0.1-0.4-0.2-0.9-0.2-0.9c-0.1-0.4,0.2-0.1,0.2-0.1s0.4,0.2,0.5,0.3c0.1,0.1,0.4,0.3,0.7,0.4c0.3,0.2,0.3,0.3,0.3,0.3
			c-0.2,0.5-1,1-1,1C1.4,15.5,1.3,15.3,1.3,15.3z"/>
		<path class="st0" d="M2.9,14.4c0,0,1.2,0.3,1.2,0.6c0,0-0.6,1-1.6,1.1l-1.1-0.5c0,0,0.2,0,0.9,0.3c0,0,0.2,0.2,0.3,0.1
			c0,0,0.8-0.2,1.2-0.9c0,0,0.1-0.2-0.3-0.3C3.5,14.7,2.6,14.3,2.9,14.4z"/>
		<path class="st0" d="M1,13.1c0,0,1.1,0.3,1.4,0.4c0,0,1.3,0.9,1.7,1.3c0,0,0,0.1-0.6-0.4c-0.6-0.4-1-0.8-1-0.8S1.3,13.3,1,13.1z"
			/>
	</g>
	<g>
		<path class="st0" d="M6.7,14.2c-0.3,0.1-0.8,0.5-0.8,1.1c0.1,0.6,0,0.8,0,0.8s-0.3,0.3,0.5-0.2c0.9-0.6,0.7-1.1,0.7-1.4
			c0-0.3,0-0.5,0-0.5C7,14.1,6.7,14.2,6.7,14.2z M7,14.6c0,0.2,0.1,0.7-0.6,1.2C5.8,16.2,6,15.9,6,15.9s0.1-0.2,0-0.7
			c-0.1-0.5,0.3-0.8,0.6-0.9c0,0,0.2,0,0.3-0.1c0,0.1,0,0.1-0.1,0.3c-0.3,0.3-0.7,0.4-0.7,0.4c0.4-0.1,0.6-0.2,0.7-0.3
			c0,0.1-0.1,0.2-0.1,0.2c-0.3,0.2-0.5,0.4-0.5,0.4C6.4,15.1,6.6,15,6.7,15c-0.1,0.2-0.3,0.5-0.4,0.7c0,0,0.2-0.2,0.4-0.5l0,0
			c0,0.2-0.1,0.5-0.1,0.5c0.1-0.2,0.1-0.4,0.1-0.5c0-0.1,0.1-0.2,0.2-0.3v0c0.1,0.2,0,0.5,0,0.5c0.1-0.2,0-0.5,0-0.6
			c0-0.1,0.1-0.2,0.1-0.3C7,14.5,7,14.5,7,14.6z M7,14.2L7,14.2C7,14.2,7,14.2,7,14.2C7.1,14.2,7,14.2,7,14.2z"/>
		<path class="st0" d="M7.8,14.1C8,14.4,8.4,14.8,9,14.5c0.5-0.2,0.8-0.2,0.8-0.2s0.4,0.2-0.3-0.4c-0.8-0.7-1.3-0.4-1.5-0.3
			c-0.3,0.1-0.5,0.1-0.5,0.1C7.6,13.8,7.8,14.1,7.8,14.1z M8.1,13.6c0.2-0.1,0.6-0.3,1.3,0.3c0.6,0.5,0.2,0.4,0.2,0.4
			s-0.2,0-0.7,0.2c-0.5,0.2-0.9-0.1-1.1-0.4c0,0-0.1-0.2-0.2-0.3c0,0,0.1,0,0.3,0c0.4,0.3,0.6,0.6,0.6,0.6c-0.2-0.3-0.4-0.5-0.5-0.6
			c0.1,0,0.2,0,0.3,0c0.3,0.2,0.5,0.4,0.5,0.4c-0.1-0.2-0.3-0.3-0.4-0.4c0.2,0,0.5,0.1,0.8,0.2c0,0-0.3-0.1-0.6-0.2l0,0
			c0.2-0.1,0.5-0.1,0.5-0.1c-0.2-0.1-0.4,0-0.6,0c-0.1,0-0.2-0.1-0.3-0.1h0c0.2-0.2,0.5-0.2,0.5-0.2c-0.2,0-0.5,0.1-0.6,0.1
			c-0.1,0-0.2,0-0.4,0C7.9,13.7,8,13.7,8.1,13.6z M7.7,13.7L7.7,13.7C7.6,13.8,7.6,13.7,7.7,13.7C7.6,13.7,7.6,13.7,7.7,13.7z"/>
	</g>
	<g>
		<path class="st0" d="M31.2,20.4c0.1-0.4-0.1-0.9-0.5-1.2C30.5,19,30.2,18.9,30,19c-0.1,0-0.3,0.2-0.4,0.4c-0.1,0.2,0,0.3,0.1,0.4
			c0.1,0.1,0.1,0.1,0.2,0.1c0,0-0.1,0.1-0.1,0.1c-0.1,0.1-0.3,0.1-0.4,0.1c-0.2,0-0.3,0-0.3,0.1c0,0.1,0,0.2,0.1,0.3
			c0.1,0.2,0.2,0.3,0.3,0.3c0.1,0,0.2-0.1,0.3-0.2c0.1-0.1,0.2-0.2,0.3-0.2c0,0,0.1,0,0.1,0c0,0.1,0,0.3,0.1,0.4
			c0.1,0.1,0.2,0.2,0.3,0.2C30.9,21,31.2,20.7,31.2,20.4z M30,19.9C30,19.9,30,19.9,30,19.9L30,19.9c-0.1,0-0.2,0-0.3-0.1
			c-0.1-0.1-0.1-0.2-0.1-0.3c0.1-0.1,0.2-0.3,0.4-0.3c0.2-0.1,0.5,0,0.7,0.2c0.3,0.3,0.5,0.7,0.4,1.1c0,0.1,0,0.1-0.1,0.2
			c-0.1,0.2-0.3,0.3-0.6,0.3c-0.1,0-0.2-0.1-0.3-0.2c-0.1-0.1-0.1-0.3-0.1-0.4v0h0c0,0-0.2,0.1-0.2,0.1c-0.1,0.1-0.2,0.1-0.3,0.2
			c-0.1,0.1-0.2,0.2-0.3,0.2c-0.1,0-0.1-0.1-0.2-0.2c-0.1-0.1-0.1-0.2,0-0.2c0-0.1,0.1-0.1,0.3-0.1c0.1,0,0.3-0.1,0.4-0.1
			C29.8,20,29.9,20,30,19.9L30,19.9C30,19.9,30,19.9,30,19.9z"/>
		<path class="st0" d="M30,20.2L30,20.2L30,20.2L30,20.2L30,20.2c0,0.1,0.2,0,0.4,0c0,0,0,0,0,0c0,0,0,0,0,0
			C30.2,20.1,30,20.2,30,20.2z"/>
		<path class="st0" d="M30,20.1L30,20.1L30,20.1c0,0,0.2-0.2,0.3-0.2l0,0v0l0,0h0C30.1,19.9,29.9,20.1,30,20.1L30,20.1
			C29.9,20.1,29.9,20.1,30,20.1z"/>
		<path class="st0" d="M30,20.2L30,20.2L30,20.2c0.1-0.1,0.4-0.2,0.4-0.2c0,0,0,0,0,0c0,0,0,0,0,0C30.4,20,30.1,20.1,30,20.2
			C30,20.1,30,20.2,30,20.2z"/>
	</g>
	<g>
		<path class="st0" d="M9,18.5c-0.5-0.5-1.1-0.7-1.2-0.5c-0.2,0.2,0.1,0.7,0.7,1.1c0.5,0.5,1.1,0.7,1.2,0.5C9.8,19.5,9.5,19,9,18.5z
			 M8.5,19.1c-0.4-0.4-0.7-0.8-0.6-0.9c0.1-0.1,0.6,0.1,1,0.4c0.4,0.4,0.7,0.8,0.6,0.9C9.4,19.7,8.9,19.5,8.5,19.1z"/>
		<path class="st0" d="M9.6,19.7L7.2,22l2.2-2.2L9.6,19.7z"/>
		<path class="st0" d="M7.2,21.9c-0.2,0.1-0.6,0-0.9-0.3C6,21.3,5.9,21,5.9,20.8l1.7-2.5c0,0-1.8,2.4-1.8,2.4
			c-0.1,0.1,0.1,0.5,0.5,0.9C6.7,21.9,7.1,22.1,7.2,21.9C7.2,21.9,7.2,21.9,7.2,21.9z"/>
		<path class="st0" d="M10.4,18.4L8.9,19c0,0,0,0,0,0c0,0,0,0,0,0C8.9,19,10.2,18.6,10.4,18.4c0,0.1-0.1,0.1-0.1,0.2c0,0,0,0,0,0
			c0,0,0,0,0,0.1c-0.2,0-1.3,0.5-1.3,0.5s0,0,0,0c0,0,0,0,0,0S9,19.2,9,19.1c0,0,0,0,0,0c0,0,0,0,0,0c0,0.1,0.1,0.1,0.2,0.1
			c0,0,0.1,0,0.1,0c0,0,1.4-0.5,1.4-0.5c0,0,0,0,0,0l0,0c0,0,0,0,0,0c0,0-0.1,0-0.1-0.1c0,0,0,0,0,0C10.4,18.5,10.5,18.5,10.4,18.4
			L10.4,18.4L10.4,18.4C10.4,18.4,10.4,18.4,10.4,18.4z"/>
		<path class="st0" d="M7.4,19.2c-0.3-0.1-0.7,0-0.8,0.2c0,0,0,0,0,0c0,0.1,0.3,0.3,0.4,0.3c0,0,0,0,0,0c0,0,0,0,0,0c0,0,0,0,0,0
			c0,0,0,0,0,0c-0.1,0-0.2-0.1-0.3-0.2c0,0,0.1-0.1,0.1-0.1c0.1-0.1,0.4-0.1,0.5,0c0.2,0,0.1,0.1,0.1,0.2s0,0,0,0.1c0,0,0,0,0.1,0
			C7.7,19.4,7.6,19.3,7.4,19.2z"/>
		<path class="st0" d="M7.7,19.8c0-0.1-0.2-0.1-0.2-0.1c0,0,0,0,0,0c0,0,0,0,0,0c-0.1,0-0.3,0-0.4,0.1c0,0,0,0,0,0c0,0,0,0,0,0
			C7,20,7.4,20.1,7.5,20c0.1,0,0.1-0.1,0.1-0.1C7.7,19.9,7.7,19.8,7.7,19.8z M7.6,19.8C7.6,19.9,7.6,19.9,7.6,19.8
			C7.6,19.9,7.6,19.9,7.6,19.8C7.5,19.9,7.5,19.9,7.6,19.8c-0.2,0.1-0.4,0.1-0.5,0C7.2,19.8,7.4,19.8,7.6,19.8
			C7.5,19.8,7.6,19.8,7.6,19.8L7.6,19.8C7.6,19.8,7.6,19.8,7.6,19.8z"/>
		<path class="st0" d="M8,20C8,19.9,7.9,19.9,8,20c-0.2,0-0.3,0.1-0.4,0.1c-0.1,0-0.2,0.1-0.4,0.1c0,0,0,0,0,0.1c0,0,0,0,0.1,0
			c0.1,0,0.2-0.1,0.3-0.1C7.7,20.1,7.8,20.1,8,20C8,20,8,20,8,20z"/>
		<path class="st0" d="M7.9,20.2c-0.1,0-0.2,0-0.4,0c-0.1,0-0.1,0-0.2,0c0,0,0,0,0,0c0,0,0,0,0,0c0.1,0,0.1,0,0.2,0
			C7.7,20.3,7.8,20.3,7.9,20.2C8,20.3,8,20.3,7.9,20.2C8,20.3,8,20.2,7.9,20.2z"/>
		<path class="st0" d="M7.5,20.2C7.5,20.2,7.5,20.2,7.5,20.2c-0.1,0.1-0.1,0.1-0.1,0.2c0,0,0,0.1-0.1,0.1c0,0,0,0,0.1,0
			c0,0,0,0,0,0.1c0,0,0-0.1,0.1-0.1C7.5,20.4,7.5,20.3,7.5,20.2C7.6,20.2,7.6,20.2,7.5,20.2z"/>
		<path class="st0" d="M8.1,20.6c-0.1-0.1-0.2-0.2-0.4-0.2c-0.1,0-0.2,0.1-0.2,0.2c0,0,0,0.2,0.2,0.2c0,0,0,0,0.1,0c0,0,0,0,0-0.1
			c-0.1,0-0.1-0.1-0.1-0.1c0,0,0,0,0-0.1c0,0,0,0,0,0C7.8,20.7,8,20.7,8.1,20.6C8.1,20.7,8.1,20.6,8.1,20.6
			C8.1,20.6,8.1,20.6,8.1,20.6z M7.8,20.5c0,0,0.2,0,0.2,0.1C7.9,20.6,7.8,20.5,7.8,20.5C7.8,20.5,7.8,20.5,7.8,20.5z"/>
		<path class="st0" d="M7.8,18.8c0,0,0.3,0.9,0.9,1.7l-0.1,0.1C8.5,20.6,7.9,19.9,7.8,18.8z"/>
		<path class="st0" d="M6.7,19.7c0,0,0.5,0.8,1.3,1.4l-0.1,0.1C7.9,21.2,7.1,20.7,6.7,19.7z"/>
	</g>
	<path class="st0" d="M26.6,18.3c-0.1,0-0.2,0-0.2,0L23.9,20c0-0.1-0.1-0.2-0.1-0.2c0-0.1-0.1-0.2-0.2-0.2c-0.1,0-0.1,0-0.2,0
		l-1.3,1C22,20.8,22,21,22.1,21.1c0,0,0,0,0,0c0,0,0,0,0,0c0,0,1-0.7,1.1-0.7c0,0,0,0.1,0.1,0.1c-0.1,0-1.1,0.7-1.1,0.7s0,0,0,0
		c0,0,0,0,0,0l0.1,0.2c0,0,0,0,0,0c0,0,1.1-0.6,1.1-0.7c0,0,0,0.1,0.1,0.1c-0.1,0-1.2,0.6-1.2,0.6s0,0,0,0s0,0,0,0
		c0.1,0.1,0.3,0.2,0.4,0.1l1.5-0.7c0.1,0,0.1-0.1,0.1-0.2s0-0.1,0-0.2c0,0-0.2-0.2-0.2-0.2l2.6-1.4c0.1,0,0.1-0.1,0.2-0.2
		c0-0.1,0-0.2-0.1-0.3l-0.1-0.1C26.7,18.3,26.7,18.3,26.6,18.3z M23.9,20.1C23.9,20.1,23.9,20.1,23.9,20.1L23.9,20.1l2.5-1.7
		c0,0,0.1,0,0.1,0c0.1,0,0.1,0,0.1,0.1l0.1,0.1c0,0.1,0,0.1,0,0.2c0,0,0,0.1-0.1,0.1l-2.6,1.4l0,0c0,0,0,0,0,0c0,0,0,0,0,0l0.2,0.2
		c0,0,0,0.1,0,0.2l0,0c0,0.1,0,0.1-0.1,0.1l-1.5,0.7c-0.1,0-0.2,0-0.3,0c0.1,0,1.2-0.6,1.2-0.6s0,0,0,0c0,0,0,0,0,0l-0.1-0.2
		c0,0,0,0,0,0c0,0,0,0,0,0c0,0-1.1,0.6-1.1,0.7c0,0-0.1-0.1-0.1-0.1c0.1,0,1.1-0.7,1.1-0.7s0,0,0,0c0,0,0,0,0,0l-0.1-0.1
		c0,0,0,0,0,0c0,0,0,0,0,0c0,0-1,0.7-1.1,0.7c0,0,0-0.1,0-0.2c0,0,0-0.1,0.1-0.1l1.3-1c0,0,0.1,0,0.2,0c0.1,0,0.1,0,0.1,0.1
		L23.9,20.1C23.9,20.1,23.9,20.1,23.9,20.1z"/>
	<g>
		<path class="st0" d="M38.4,19.9c-0.5,0.3-0.8,0.7-0.7,0.9c0.1,0.2,0.6,0,1.1-0.3c0.5-0.3,0.8-0.7,0.7-0.9
			C39.4,19.4,38.9,19.5,38.4,19.9z M38.9,20.4c-0.4,0.3-0.8,0.4-0.9,0.2s0.2-0.5,0.6-0.8s0.8-0.4,0.9-0.2
			C39.6,19.8,39.3,20.1,38.9,20.4z"/>
		<path class="st0" d="M38.2,19.5c-0.4,0.2-0.6,0.6-0.5,0.7c0.1,0.1,0.5,0,0.8-0.2c0.4-0.2,0.6-0.6,0.5-0.7
			C39,19.2,38.6,19.3,38.2,19.5z M38.6,20c-0.3,0.2-0.6,0.3-0.7,0.2c-0.1-0.1,0.1-0.4,0.5-0.6c0.3-0.2,0.6-0.3,0.7-0.2
			C39.1,19.5,38.9,19.7,38.6,20z"/>
		<path class="st0" d="M39.6,19.6l1.1,2.2l-1.1-2L39.6,19.6z"/>
		<path class="st0" d="M40.6,21.7c0,0.2-0.2,0.5-0.5,0.7c-0.3,0.2-0.6,0.3-0.8,0.2L37.9,21c0,0,1.3,1.7,1.4,1.7
			c0.1,0.1,0.5,0,0.9-0.2C40.5,22.2,40.8,21.9,40.6,21.7C40.7,21.8,40.7,21.7,40.6,21.7z"/>
		<path class="st0" d="M37.7,20.2l0.4,0.3l-0.3-0.4L37.7,20.2z"/>
		<path class="st0" d="M39.1,19.3l0.3,0.5l-0.3-0.4V19.3z"/>
		<path class="st0" d="M38.1,20.6c0,0,0.4,0,0.8-0.3c0,0-0.5,0.3-0.9,0.2L38.1,20.6z"/>
		<path class="st0" d="M38.2,19.9c0,0,0,0.1-0.1,0.1c0,0-0.1,0-0.1,0c0,0,0-0.1,0.1-0.1C38.1,19.8,38.2,19.8,38.2,19.9z"/>
		<path class="st0" d="M38.8,19.4c0,0,0,0.1-0.1,0.1c0,0-0.1,0-0.1,0c0,0,0-0.1,0.1-0.1C38.7,19.4,38.8,19.4,38.8,19.4z"/>
		<path class="st0" d="M38.6,19.7c0,0,0,0.1-0.1,0.1c0,0-0.1,0-0.1,0c0,0,0-0.1,0.1-0.1C38.5,19.7,38.5,19.7,38.6,19.7z"/>
		<path class="st0" d="M38.5,19.6c0,0,0,0.1-0.1,0.1c0,0-0.1,0-0.1,0c0,0,0-0.1,0.1-0.1C38.4,19.6,38.5,19.5,38.5,19.6z"/>
		<path class="st0" d="M38.3,18.7l0.2,0.1l0-0.1l-0.1-0.1L38.3,18.7z"/>
		<path class="st0" d="M38.7,18.2l0.1,0.2c0.1,0,0.1-0.2,0.1-0.2L38.7,18.2z"/>
		<path class="st0" d="M39.1,17.9l0,0.2l0.1-0.1C39.3,17.8,39.1,17.9,39.1,17.9z"/>
		<path class="st0" d="M39.2,17.2v0.2c0.1,0,0.1,0,0.1,0l0-0.2L39.2,17.2z"/>
		<path class="st0" d="M39.8,18.2l0,0.2c0.1,0,0.2-0.2,0.2-0.2L39.8,18.2z"/>
		<path class="st0" d="M39.7,17.5l0.2,0.2l0.1-0.1C39.9,17.5,39.7,17.5,39.7,17.5z"/>
	</g>
	<g>
		<path class="st0" d="M1.3,20.9C1.4,21,1.6,21,1.8,21c0.1,0.1,0.2,0.2,0.4,0.3c0.6,0.2,1.2-0.1,1.5-0.7C3.9,20,3.5,19.2,3,18.9
			c-0.1,0-0.2-0.1-0.3-0.1c-0.1-0.1-0.2-0.1-0.3-0.2c-0.6-0.2-1.4,0.1-1.7,0.7C0.5,20,0.7,20.7,1.3,20.9z M2.4,18.8
			c0.1,0,0.2,0.1,0.2,0.2c0.1,0,0.2,0,0.3,0.1c0.5,0.2,0.8,0.9,0.6,1.5c-0.2,0.5-0.8,0.8-1.3,0.6c-0.1,0-0.2-0.1-0.3-0.2
			c-0.1,0-0.3,0-0.4-0.1c-0.5-0.2-0.7-0.8-0.5-1.3C1.1,18.9,1.9,18.6,2.4,18.8z"/>
		<path class="st0" d="M1.2,20.3c0.1,0.3,0.4,0.4,0.5,0.4C2,21.2,2.5,21,2.5,21c-0.2,0-0.4-0.2-0.4-0.2s0.2,0.1,0.5,0
			c0,0-0.1,0-0.4-0.1c0,0,0.1-0.1,0.1-0.3L2,20.5c0,0-0.2-0.1-0.3-0.3c0,0-0.1,0,0,0.2C1.5,20.5,1.2,20.3,1.2,20.3z"/>
		<path class="st0" d="M3,19.3c0.2,0.2,0.4,0.5,0.4,1C3.4,20.3,3.5,19.7,3,19.3L3,19.3z"/>
		<path class="st0" d="M2.9,19.2L2.9,19.2c0-0.1-0.1-0.2-0.2-0.2l0,0.1C2.6,19.1,2.8,19.2,2.9,19.2z"/>
	</g>
	<g>
		<path class="st0" d="M19.9,19.5c0-0.1-0.1-0.1-0.1-0.2c-0.1-0.8-0.6-0.6-0.8-0.5c-0.2-0.7-0.7-0.5-0.8-0.4c0.2,0,0.6,0,0.8,0.4
			c0,0,0,0,0,0c0,0,0,0,0,0c0,0,0,0.1,0,0.1c0,0,0-0.1,0-0.1c0.2,0,0.6,0,0.8,0.4c-0.3-0.3-0.7-0.2-0.9-0.2
			c-0.1-0.2-0.3-0.6-0.9-0.6c0,0-0.6,0-0.7,0.7c0,0,0,0.6-0.1,0.9c0,0-0.4,0.7,0.1,0.9c0,0,0.2,0.2,0.5,0.1c0.1,0.3,0.4,0.4,0.4,0.4
			c0.5,0.2,0.8-0.4,0.8-0.4c0.2-0.2,0.7-0.6,0.7-0.6C20.2,20,19.9,19.5,19.9,19.5z M19.5,20.5c0,0-0.4,0.4-0.6,0.6
			c0,0-0.3,0.6-0.7,0.4c0,0-0.2,0-0.3-0.3c0.1,0,0.2,0,0.3-0.1c-0.2,0.1-0.4,0-0.4,0c-0.2-0.1-0.2-0.3-0.2-0.4c0,0.1,0,0.3,0.1,0.4
			c-0.3,0-0.4-0.1-0.4-0.1c-0.4-0.2-0.1-0.8-0.1-0.8c0-0.3,0.1-0.9,0.1-0.9c0.1-0.7,0.6-0.7,0.6-0.7c0.5-0.1,0.7,0.3,0.8,0.5
			c-0.2-0.1-0.4,0-0.5,0.1c0.3,0,0.7,0,0.9,0.6c0-0.4-0.2-0.5-0.3-0.6c0.2,0,0.6-0.1,0.9,0.4C19.7,19.5,20,20,19.5,20.5z"/>
		<path class="st0" d="M19.2,19.8L19.2,19.8L19.2,19.8L19.2,19.8z"/>
		<path class="st0" d="M19,19L19,19L19,19L19,19z"/>
		<path class="st0" d="M19.4,18.4c0,0-0.3,0-0.5,0.7c0,0,0.3-0.5,0.7-0.5C19.7,18.6,19.7,18.3,19.4,18.4z"/>
	</g>
	<g>
		<path class="st0" d="M12.9,19.6c0,0,0.8,0.7,1.4,0.8c0,0,0.2,0,0.3-0.4s0.2-0.7,0.3-0.9c0-0.2,0.1-0.7,0.1-0.7s0.2-0.4-0.2-0.2
			c0,0-0.5,0.3-0.9,0.5c-0.4,0.2-0.8,0.3-1,0.6C12.8,19.3,12.7,19.4,12.9,19.6z M13,19.3c0.2-0.2,0.5-0.3,0.9-0.5
			c0.4-0.2,0.8-0.5,0.8-0.5c0.4-0.2,0.2,0.1,0.2,0.1s-0.1,0.4-0.1,0.6c0,0.2-0.2,0.4-0.2,0.8c-0.1,0.3-0.2,0.4-0.2,0.4
			c-0.5-0.1-1.2-0.6-1.2-0.6C12.8,19.4,13,19.3,13,19.3z"/>
		<path class="st0" d="M14.3,20.6c0,0,0,1.3-0.2,1.3c0,0-1.1-0.3-1.6-1.2l0.2-1.2c0,0,0.1,0.2,0,0.9c0,0-0.1,0.2,0,0.3
			c0,0,0.4,0.7,1.2,0.9c0,0,0.2,0,0.2-0.3C14.2,21.3,14.3,20.3,14.3,20.6z"/>
		<path class="st0" d="M15,18.3c0,0,0,1.2,0,1.4c0,0-0.5,1.5-0.8,2c0,0-0.1,0.1,0.2-0.7c0.2-0.7,0.5-1.2,0.5-1.2S14.9,18.7,15,18.3z
			"/>
	</g>
	<g>
		<path class="st0" d="M35.1,18.9c0-0.4-0.4-0.9-1-0.9c-0.6,0-0.8-0.1-0.8-0.1s-0.3-0.3,0.1,0.5c0.4,0.9,1,0.9,1.3,0.9
			c0.3,0,0.5,0.1,0.5,0.1C35.2,19.3,35.1,18.9,35.1,18.9z M34.7,19.2c-0.2,0-0.7,0-1.1-0.7c-0.3-0.7-0.1-0.4-0.1-0.4
			s0.2,0.1,0.7,0.1c0.5,0,0.8,0.4,0.8,0.7c0,0,0,0.2,0.1,0.3c0,0-0.1-0.1-0.2-0.1c-0.2-0.4-0.3-0.8-0.3-0.8c0,0.4,0.2,0.6,0.2,0.7
			c-0.1,0-0.1-0.1-0.2-0.1c-0.2-0.3-0.3-0.6-0.3-0.6c0,0.2,0.1,0.4,0.2,0.5c-0.2-0.1-0.4-0.3-0.7-0.5c0,0,0.2,0.2,0.5,0.5l0,0
			c-0.2,0-0.5-0.1-0.5-0.1c0.1,0.1,0.4,0.2,0.5,0.2c0.1,0.1,0.2,0.1,0.3,0.2h0c-0.3,0.1-0.5,0-0.5,0c0.2,0.1,0.5,0.1,0.6,0.1
			c0.1,0.1,0.2,0.1,0.3,0.2C34.8,19.2,34.7,19.2,34.7,19.2z M35.1,19.3L35.1,19.3C35.1,19.3,35.1,19.3,35.1,19.3
			C35.1,19.3,35.1,19.3,35.1,19.3z"/>
		<path class="st0" d="M35.1,20c-0.3,0.1-0.8,0.6-0.6,1.2c0.2,0.6,0.1,0.8,0.1,0.8s-0.2,0.4,0.5-0.2c0.8-0.7,0.6-1.2,0.5-1.4
			c-0.1-0.3,0-0.5,0-0.5C35.4,19.9,35.1,20,35.1,20z M35.5,20.4c0,0.2,0.2,0.7-0.4,1.2c-0.6,0.5-0.4,0.2-0.4,0.2s0-0.2-0.1-0.7
			c-0.1-0.5,0.2-0.9,0.5-1c0,0,0.2-0.1,0.3-0.2c0,0,0,0.1,0,0.3c-0.3,0.3-0.7,0.5-0.7,0.5c0.3-0.1,0.5-0.3,0.6-0.4
			c0,0.1,0,0.2-0.1,0.3c-0.2,0.3-0.5,0.4-0.5,0.4c0.2-0.1,0.3-0.2,0.4-0.3c-0.1,0.2-0.2,0.5-0.3,0.8c0,0,0.2-0.2,0.3-0.6l0,0
			c0.1,0.2,0,0.5,0,0.5c0.1-0.2,0.1-0.4,0-0.6c0-0.1,0.1-0.2,0.1-0.3v0c0.1,0.2,0.1,0.5,0.1,0.5c0.1-0.2,0-0.5-0.1-0.6
			c0-0.1,0.1-0.2,0.1-0.3C35.5,20.3,35.5,20.3,35.5,20.4z M35.5,20L35.5,20C35.4,20,35.5,20,35.5,20C35.5,19.9,35.5,20,35.5,20z"/>
	</g>
	<g>
		<path class="st0" d="M25.1,26.4c0.1-0.4-0.1-0.9-0.5-1.2c-0.2-0.2-0.5-0.3-0.8-0.2c-0.1,0-0.3,0.2-0.4,0.4c-0.1,0.2,0,0.3,0.1,0.4
			c0.1,0.1,0.1,0.1,0.2,0.1c0,0-0.1,0.1-0.1,0.1c-0.1,0.1-0.3,0.1-0.4,0.1c-0.2,0-0.3,0-0.3,0.1c0,0.1,0,0.2,0.1,0.3
			c0.1,0.2,0.2,0.3,0.3,0.3c0.1,0,0.2-0.1,0.3-0.2c0.1-0.1,0.2-0.2,0.3-0.2c0,0,0.1,0,0.1,0c0,0.1,0,0.3,0.1,0.4
			c0.1,0.1,0.2,0.2,0.3,0.2C24.7,27,25,26.7,25.1,26.4z M23.8,25.9C23.8,25.9,23.8,25.9,23.8,25.9L23.8,25.9c-0.1,0-0.2,0-0.3-0.1
			c-0.1-0.1-0.1-0.2-0.1-0.3c0.1-0.1,0.2-0.3,0.4-0.3c0.2-0.1,0.5,0,0.7,0.2c0.3,0.3,0.5,0.7,0.4,1.1c0,0.1,0,0.1-0.1,0.2
			c-0.1,0.2-0.3,0.3-0.6,0.3c-0.1,0-0.2-0.1-0.3-0.2C24,26.5,24,26.4,24,26.3v0h0c0,0-0.2,0.1-0.2,0.1c-0.1,0.1-0.2,0.1-0.3,0.2
			c-0.1,0.1-0.2,0.2-0.3,0.2c-0.1,0-0.1-0.1-0.2-0.2c-0.1-0.1-0.1-0.2,0-0.2c0-0.1,0.1-0.1,0.3-0.1c0.1,0,0.3-0.1,0.4-0.1
			C23.7,26,23.8,26,23.8,25.9L23.8,25.9C23.8,25.9,23.8,25.9,23.8,25.9z"/>
		<path class="st0" d="M23.8,26.2L23.8,26.2L23.8,26.2L23.8,26.2L23.8,26.2c0,0.1,0.2,0,0.4,0c0,0,0,0,0,0c0,0,0,0,0,0
			C24.1,26.1,23.8,26.2,23.8,26.2z"/>
		<path class="st0" d="M23.8,26.1L23.8,26.1L23.8,26.1c0,0,0.2-0.2,0.3-0.2l0,0v0l0,0h0C23.9,25.8,23.8,26,23.8,26.1L23.8,26.1
			C23.8,26,23.8,26.1,23.8,26.1z"/>
		<path class="st0" d="M23.8,26.1L23.8,26.1L23.8,26.1c0.1-0.1,0.4-0.2,0.4-0.2c0,0,0,0,0,0c0,0,0,0,0,0
			C24.2,25.9,23.9,26,23.8,26.1C23.8,26.1,23.8,26.1,23.8,26.1z"/>
	</g>
	<g>
		<path class="st0" d="M1.9,24.7c-0.5,0.5-0.7,1-0.6,1.2s0.7-0.1,1.2-0.6c0.5-0.5,0.7-1,0.6-1.2C3,23.9,2.4,24.2,1.9,24.7z
			 M2.5,25.2c-0.4,0.4-0.8,0.7-1,0.5c-0.1-0.1,0.1-0.6,0.5-1c0.4-0.4,0.8-0.7,1-0.5C3.2,24.3,2.9,24.8,2.5,25.2z"/>
		<path class="st0" d="M3.1,24.1l2.2,2.5l-2.1-2.3L3.1,24.1z"/>
		<path class="st0" d="M5.2,26.6c0.1,0.2-0.1,0.5-0.4,0.9c-0.3,0.3-0.6,0.5-0.8,0.4l-2.4-1.8c0,0,2.3,1.9,2.4,1.9
			c0.1,0.1,0.5-0.1,0.9-0.5C5.2,27.1,5.4,26.7,5.2,26.6C5.3,26.6,5.3,26.6,5.2,26.6z"/>
		<path class="st0" d="M1.9,23.2l0.5,1.5c0,0,0,0,0,0c0,0,0,0,0,0C2.4,24.7,2,23.4,1.9,23.2C2,23.3,2,23.3,2.1,23.3c0,0,0,0,0,0
			c0,0,0.1,0,0.1,0c0,0.2,0.4,1.3,0.4,1.3s0,0,0,0c0,0,0,0,0,0c0,0,0,0.1-0.1,0.1c0,0,0,0,0,0c0,0,0,0,0,0c0.1,0,0.1-0.1,0.1-0.1
			c0,0,0-0.1,0-0.1c0,0-0.4-1.4-0.4-1.4c0,0,0,0,0,0l0,0c0,0,0,0,0,0c0,0,0,0.1-0.1,0.1c0,0,0,0,0,0C2,23.3,2,23.2,1.9,23.2
			L1.9,23.2L1.9,23.2C1.9,23.2,1.9,23.2,1.9,23.2z"/>
		<path class="st0" d="M2.6,26.2c-0.1,0.3,0,0.7,0.2,0.8c0,0,0,0,0,0c0.1,0,0.3-0.3,0.3-0.4c0,0,0-0.1,0-0.1c0,0,0,0-0.1,0
			c0,0,0,0,0,0c0,0,0,0,0,0c0,0.1-0.1,0.2-0.2,0.3c0,0-0.1-0.1-0.1-0.1c-0.1-0.1-0.1-0.4,0-0.5c0.1-0.2,0.1-0.1,0.2-0.1
			c0,0,0,0,0.1,0c0,0,0,0,0-0.1C2.7,26,2.6,26.1,2.6,26.2z"/>
		<path class="st0" d="M3.2,26c-0.1,0-0.1,0.2-0.1,0.2c0,0,0,0,0,0c0,0,0,0,0,0c0,0.1,0,0.3,0.1,0.4c0,0,0,0,0,0c0,0,0,0,0,0
			c0.1-0.1,0.2-0.4,0.2-0.6c0-0.1-0.1-0.1-0.1-0.2C3.2,26,3.2,26,3.2,26z M3.2,26.1C3.2,26.1,3.2,26.1,3.2,26.1
			C3.3,26.1,3.3,26.1,3.2,26.1C3.3,26.2,3.3,26.2,3.2,26.1c0.1,0.2,0,0.4,0,0.5C3.2,26.5,3.1,26.3,3.2,26.1
			C3.2,26.2,3.2,26.2,3.2,26.1L3.2,26.1C3.2,26.1,3.2,26.1,3.2,26.1z"/>
		<path class="st0" d="M3.3,25.7C3.3,25.7,3.3,25.8,3.3,25.7c0,0.2,0.1,0.3,0.1,0.4c0,0.1,0.1,0.2,0.1,0.4c0,0,0,0,0.1,0
			c0,0,0,0,0-0.1c0-0.1-0.1-0.2-0.1-0.4C3.5,26,3.4,25.9,3.3,25.7C3.4,25.7,3.4,25.7,3.3,25.7z"/>
		<path class="st0" d="M3.6,25.8c0,0.1,0,0.2-0.1,0.4c0,0.1,0,0.1,0,0.2c0,0,0,0,0,0.1c0,0,0,0,0.1,0c0-0.1,0-0.1,0-0.2
			c0-0.1,0.1-0.2,0.1-0.4C3.7,25.7,3.7,25.7,3.6,25.8C3.6,25.7,3.6,25.7,3.6,25.8z"/>
		<path class="st0" d="M3.6,26.2C3.5,26.2,3.6,26.2,3.6,26.2c0.1,0.1,0.1,0.1,0.2,0.1c0,0,0.1,0,0.1,0.1c0,0,0,0,0-0.1
			c0,0,0,0,0.1,0c0,0-0.1-0.1-0.1-0.1C3.7,26.2,3.7,26.2,3.6,26.2C3.6,26.2,3.6,26.2,3.6,26.2z"/>
		<path class="st0" d="M4,25.6c-0.1,0.1-0.3,0.2-0.2,0.4c0,0.1,0.1,0.2,0.2,0.2c0,0,0.2,0,0.2-0.2c0,0,0,0,0-0.1c0,0,0,0-0.1,0
			C4.1,26,4,26.1,4,26.1c0,0,0,0-0.1,0c0,0,0,0,0,0C4,25.9,4.1,25.7,4,25.6C4,25.6,4,25.6,4,25.6C4,25.6,4,25.6,4,25.6z M3.8,26
			c0,0,0-0.2,0.1-0.2C4,25.9,3.9,26,3.8,26C3.9,26,3.8,26,3.8,26z"/>
		<path class="st0" d="M2.2,25.9c0,0,0.9-0.2,1.7-0.8L4,25.2C4,25.2,3.3,25.8,2.2,25.9z"/>
		<path class="st0" d="M3,27c0,0,0.9-0.4,1.4-1.2l0.1,0.1C4.5,25.9,4,26.6,3,27z"/>
	</g>
	<path class="st0" d="M27,24.3c0,0.1,0,0.2,0.1,0.2l2.2,2c0,0-0.2,0.1-0.2,0.1c-0.1,0.1-0.1,0.1-0.1,0.2s0,0.1,0.1,0.2l1.3,1
		c0.1,0.1,0.3,0.1,0.4,0c0,0,0,0,0,0c0,0,0,0,0,0c0,0-0.9-0.9-1-0.9c0,0,0-0.1,0.1-0.1c0,0,0.9,0.9,0.9,0.9c0,0,0,0,0,0c0,0,0,0,0,0
		l0.2-0.2c0,0,0,0,0-0.1c0,0-0.9-0.9-0.9-0.9c0,0,0.1-0.1,0.1-0.1c0,0,0.9,1,0.9,1c0,0,0,0,0,0c0,0,0,0,0,0c0.1-0.1,0.1-0.3,0-0.4
		l-1-1.3c-0.1-0.1-0.1-0.1-0.2-0.1s-0.1,0-0.2,0.1c0,0-0.1,0.2-0.2,0.3L27.7,24c0,0-0.2-0.1-0.2-0.1c-0.1,0-0.2,0.1-0.3,0.1
		l-0.1,0.1C27.1,24.1,27,24.2,27,24.3z M29.4,26.5C29.4,26.5,29.4,26.4,29.4,26.5L29.4,26.5l-2.2-2.1c0,0-0.1-0.1-0.1-0.1
		c0-0.1,0-0.1,0.1-0.2l0.1-0.1c0,0,0.1-0.1,0.2-0.1s0.1,0,0.1,0.1l2,2.3l0,0c0,0,0,0,0,0c0,0,0,0,0,0l0.2-0.2c0,0,0.1-0.1,0.1-0.1
		l0,0c0.1,0,0.1,0,0.1,0.1l1,1.3c0.1,0.1,0.1,0.2,0,0.3c-0.1-0.1-0.9-1-0.9-1c0,0,0,0,0,0c0,0,0,0,0,0l-0.1,0.1c0,0,0,0,0,0
		c0,0,0,0,0,0c0,0,0.9,0.9,0.9,0.9c0,0-0.1,0.1-0.1,0.1c0,0-0.9-0.9-0.9-0.9c0,0,0,0,0,0c0,0,0,0,0,0L29.8,27c0,0,0,0,0,0
		c0,0,0,0,0,0c0,0,0.9,0.8,1,0.9c0,0-0.1,0.1-0.1,0.1c-0.1,0-0.1,0-0.2-0.1l-1.3-1c0,0-0.1-0.1-0.1-0.1s0-0.1,0.1-0.2L29.4,26.5
		C29.4,26.5,29.4,26.5,29.4,26.5z"/>
	<g>
		<path class="st0" d="M33.1,26.3c0,0.6,0.1,1.1,0.3,1.1c0.2,0,0.4-0.5,0.4-1.1c0-0.6-0.1-1.1-0.3-1.1
			C33.3,25.3,33.1,25.7,33.1,26.3z M33.8,26.3c0,0.5-0.2,0.9-0.3,0.9c-0.2,0-0.3-0.4-0.3-0.9s0.2-0.9,0.3-0.9
			C33.7,25.4,33.8,25.8,33.8,26.3z"/>
		<path class="st0" d="M32.7,26.3c0,0.5,0.1,0.8,0.3,0.8c0.2,0,0.3-0.4,0.3-0.8c0-0.5-0.1-0.8-0.3-0.8S32.7,25.9,32.7,26.3z
			 M33.3,26.3c0,0.4-0.1,0.7-0.2,0.7c-0.1,0-0.2-0.3-0.2-0.7c0-0.4,0.1-0.7,0.2-0.7C33.2,25.6,33.3,25.9,33.3,26.3z"/>
		<path class="st0" d="M33.5,25.3l2.5,0.3l-2.3-0.2L33.5,25.3z"/>
		<path class="st0" d="M35.9,25.6c0.2,0.1,0.3,0.4,0.3,0.8c0,0.4-0.1,0.7-0.3,0.7l-2.2,0.3c0,0,2.2-0.1,2.2-0.1
			c0.2,0,0.3-0.4,0.3-0.8C36.2,26,36.1,25.6,35.9,25.6C35.9,25.6,35.9,25.6,35.9,25.6z"/>
		<path class="st0" d="M33,27.1l0.5-0.1l-0.4,0L33,27.1z"/>
		<path class="st0" d="M33,25.5l0.6,0.1l-0.4,0L33,25.5z"/>
		<path class="st0" d="M33.5,27c0,0,0.3-0.3,0.2-0.8c0,0,0,0.6-0.3,0.9L33.5,27z"/>
		<path class="st0" d="M32.9,26.5c0,0,0,0.1,0.1,0.1c0,0.1,0,0.1,0,0.1c0,0,0-0.1-0.1-0.1C32.9,26.6,32.9,26.5,32.9,26.5z"/>
		<path class="st0" d="M33,25.8c0,0,0,0.1,0.1,0.1c0,0.1,0,0.1,0,0.1c0,0,0-0.1-0.1-0.1C32.9,25.9,32.9,25.8,33,25.8z"/>
		<path class="st0" d="M33.1,26.2c0,0,0,0.1,0.1,0.1c0,0.1,0,0.1,0,0.1c0,0,0-0.1-0.1-0.1C33,26.2,33,26.2,33.1,26.2z"/>
		<path class="st0" d="M32.9,26.2c0,0,0,0.1,0.1,0.1c0,0.1,0,0.1,0,0.1c0,0,0-0.1-0.1-0.1C32.8,26.2,32.9,26.2,32.9,26.2z"/>
		<path class="st0" d="M32.1,25.8l0.2-0.1l-0.1-0.1l-0.2,0L32.1,25.8z"/>
		<path class="st0" d="M31.9,25.2l0.3,0c0-0.1-0.1-0.2-0.1-0.2L31.9,25.2z"/>
		<path class="st0" d="M31.9,24.6l0.2,0.1l0-0.2C31.9,24.5,31.9,24.6,31.9,24.6z"/>
		<path class="st0" d="M31.3,24.2l0.1,0.1c0.1-0.1,0.1-0.1,0.1-0.1l-0.1-0.1L31.3,24.2z"/>
		<path class="st0" d="M32.5,24.3l0.2,0.2c0.1-0.1,0-0.2,0-0.2L32.5,24.3z"/>
		<path class="st0" d="M31.9,24l0.3,0l0-0.2C31.9,23.8,31.9,24,31.9,24z"/>
	</g>
	<g>
		<path class="st0" d="M9.8,25.2c-0.2,0-0.3,0-0.5,0c-0.1-0.1-0.3-0.2-0.4-0.2c-0.6-0.1-1.2,0.3-1.3,1c-0.1,0.6,0.4,1.4,1,1.5
			c0.1,0,0.2,0,0.3,0c0.1,0.1,0.2,0.1,0.3,0.1c0.6,0.1,1.3-0.4,1.5-1C10.8,26,10.4,25.3,9.8,25.2z M9.2,27.6c-0.1,0-0.2-0.1-0.3-0.1
			c-0.1,0-0.2,0-0.3,0c-0.5-0.1-1-0.8-0.9-1.3c0.1-0.6,0.6-1,1.2-0.9c0.1,0,0.3,0.1,0.4,0.2c0.1,0,0.3,0,0.4,0
			c0.5,0.1,0.9,0.6,0.8,1.2C10.4,27.2,9.8,27.7,9.2,27.6z"/>
		<path class="st0" d="M10,25.8c-0.1-0.3-0.4-0.3-0.6-0.3c-0.3-0.4-0.7-0.1-0.7-0.1c0.2,0,0.4,0.1,0.4,0.1s-0.2-0.1-0.5,0.2
			c0,0,0.1-0.1,0.4,0c0,0-0.1,0.1-0.1,0.3l0.3-0.2c0,0,0.2,0.1,0.4,0.2c0,0,0-0.1-0.1-0.2C9.7,25.7,10,25.8,10,25.8z"/>
		<path class="st0" d="M8.5,27.1C8.3,27,8,26.8,7.9,26.3C7.9,26.3,7.9,26.9,8.5,27.1L8.5,27.1z"/>
		<path class="st0" d="M8.6,27.2L8.6,27.2c0,0.1,0.1,0.1,0.2,0.2l0-0.1C8.9,27.3,8.8,27.3,8.6,27.2z"/>
	</g>
	<g>
		<path class="st0" d="M14.1,24.5c-0.1,0-0.1,0-0.2,0.1c-0.8-0.1-0.7,0.4-0.7,0.7c-0.7,0-0.6,0.5-0.6,0.7c0-0.2,0.1-0.6,0.6-0.7
			c0,0,0,0,0,0c0,0,0,0,0-0.1c0,0,0.1,0,0.1,0c0,0-0.1,0-0.1,0c0-0.2,0.1-0.6,0.6-0.6c-0.4,0.2-0.4,0.6-0.4,0.8
			c-0.2,0-0.7,0.2-0.8,0.8c0,0-0.1,0.6,0.6,0.8c0,0,0.6,0.2,0.9,0.3c0,0,0.5,0.5,0.9,0.1c0,0,0.2-0.1,0.2-0.5
			c0.3-0.1,0.5-0.3,0.5-0.3c0.3-0.4-0.2-0.9-0.2-0.9C15.3,25.5,15,25,15,25C14.7,24.3,14.1,24.5,14.1,24.5z M15,25.1
			c0,0,0.3,0.5,0.4,0.8c0,0,0.5,0.4,0.2,0.8c0,0-0.1,0.2-0.3,0.2c0-0.1,0.1-0.2,0-0.4c0,0.2-0.1,0.3-0.1,0.3C15,27,14.9,27,14.7,27
			c0.1,0.1,0.3,0.1,0.5,0c0,0.3-0.2,0.4-0.2,0.4c-0.3,0.3-0.8-0.1-0.8-0.1c-0.2-0.1-0.8-0.3-0.8-0.3c-0.6-0.2-0.5-0.8-0.5-0.8
			c0-0.5,0.5-0.6,0.6-0.7c-0.1,0.2-0.1,0.4-0.1,0.5c0-0.3,0.2-0.7,0.8-0.7c-0.4,0-0.6,0-0.7,0.1c0-0.2,0.1-0.6,0.6-0.7
			C14.1,24.7,14.6,24.5,15,25.1z"/>
		<path class="st0" d="M14.2,25.3L14.2,25.3L14.2,25.3L14.2,25.3z"/>
		<path class="st0" d="M13.4,25.3L13.4,25.3L13.4,25.3L13.4,25.3z"/>
		<path class="st0" d="M12.9,24.7c0,0,0,0.3,0.6,0.7c0,0-0.4-0.4-0.3-0.9C13.2,24.5,12.9,24.4,12.9,24.7z"/>
	</g>
	<g>
		<path class="st0" d="M20.4,25.8c0,0-1-0.2-1.6,0c0,0-0.2,0.1,0,0.5s0.1,0.7,0.2,0.9c0.1,0.2,0.2,0.7,0.2,0.7s0,0.5,0.3,0
			c0,0,0.3-0.5,0.5-0.9c0.2-0.4,0.5-0.6,0.6-1C20.6,26,20.7,25.9,20.4,25.8z M20.5,26.1c-0.1,0.3-0.3,0.5-0.5,0.9
			c-0.2,0.4-0.4,0.8-0.4,0.8c-0.2,0.4-0.2,0-0.2,0s-0.1-0.4-0.2-0.6c0-0.2-0.1-0.5-0.2-0.8c-0.1-0.3,0-0.4,0-0.4
			c0.5-0.2,1.4,0,1.4,0C20.5,26,20.5,26.1,20.5,26.1z"/>
		<path class="st0" d="M18.7,25.7c0,0-0.7-1.1-0.5-1.2c0,0,1.1-0.3,1.9,0.3l0.4,1.1c0,0-0.2-0.1-0.5-0.8c0,0,0-0.2-0.2-0.3
			c0,0-0.7-0.4-1.5-0.1c0,0-0.2,0.1,0,0.4C18.5,25,18.8,25.9,18.7,25.7z"/>
		<path class="st0" d="M19.2,28c0,0-0.6-1-0.7-1.2c0,0-0.3-1.6-0.3-2.1c0,0,0-0.1,0.2,0.7c0.1,0.7,0.2,1.3,0.2,1.3
			S19.1,27.6,19.2,28z"/>
	</g>
	<g>
		<path class="st0" d="M38.2,26c-0.3,0.2-0.7,0.7-0.5,1.2c0.2,0.6,0.2,0.8,0.2,0.8s-0.2,0.4,0.4-0.3c0.7-0.7,0.5-1.3,0.4-1.5
			c-0.1-0.3-0.1-0.5-0.1-0.5C38.5,25.9,38.2,26,38.2,26z M38.6,26.4c0.1,0.2,0.3,0.6-0.3,1.3c-0.5,0.6-0.4,0.2-0.4,0.2
			s0-0.2-0.2-0.7c-0.2-0.5,0.1-0.9,0.4-1c0,0,0.2-0.1,0.3-0.2c0,0.1,0,0.1,0,0.3c-0.3,0.4-0.6,0.6-0.6,0.6c0.3-0.2,0.5-0.4,0.6-0.5
			c0,0.1,0,0.2,0,0.3c-0.2,0.3-0.4,0.5-0.4,0.5c0.2-0.1,0.3-0.2,0.4-0.3c-0.1,0.2-0.1,0.5-0.3,0.8c0,0,0.1-0.2,0.3-0.6l0,0
			c0.1,0.2,0,0.5,0,0.5c0.1-0.2,0-0.4,0-0.6c0-0.1,0.1-0.2,0.1-0.3v0c0.2,0.2,0.2,0.5,0.2,0.5c0-0.2-0.1-0.5-0.1-0.6
			c0-0.1,0-0.2,0.1-0.4C38.6,26.2,38.6,26.3,38.6,26.4z M38.5,26L38.5,26C38.5,25.9,38.5,25.9,38.5,26C38.5,25.9,38.5,25.9,38.5,26z
			"/>
		<path class="st0" d="M39.2,25.7c0.3,0.3,0.8,0.5,1.3,0.2c0.5-0.4,0.7-0.4,0.7-0.4s0.4,0.1-0.4-0.4c-0.9-0.5-1.4-0.1-1.6,0
			c-0.3,0.2-0.5,0.2-0.5,0.2C39,25.4,39.2,25.7,39.2,25.7z M39.4,25.1c0.2-0.1,0.5-0.5,1.3,0c0.7,0.4,0.3,0.3,0.3,0.3
			s-0.2,0-0.6,0.3c-0.4,0.3-0.9,0.1-1.1-0.1c0,0-0.1-0.1-0.2-0.2c0,0,0.1,0,0.3,0c0.4,0.2,0.7,0.4,0.7,0.4c-0.3-0.3-0.5-0.4-0.6-0.5
			c0.1,0,0.2,0,0.3,0c0.3,0.1,0.6,0.3,0.6,0.3c-0.2-0.2-0.3-0.2-0.4-0.3c0.2,0,0.5,0,0.9,0c0,0-0.3-0.1-0.7-0.1l0,0
			c0.2-0.1,0.4-0.2,0.4-0.2c-0.2,0-0.4,0.1-0.5,0.2c-0.1,0-0.2,0-0.3,0h0c0.2-0.2,0.4-0.3,0.4-0.3c-0.2,0-0.4,0.2-0.5,0.3
			c-0.1,0-0.2,0-0.4,0C39.3,25.2,39.4,25.2,39.4,25.1z M39.1,25.3L39.1,25.3C39,25.4,39,25.4,39.1,25.3C39,25.4,39,25.4,39.1,25.3z"
			/>
	</g>
	<g>
		<path class="st0" d="M31.2,31.8c0.1-0.4-0.1-0.9-0.5-1.2c-0.2-0.2-0.5-0.3-0.8-0.2c-0.1,0-0.3,0.2-0.4,0.4c-0.1,0.2,0,0.3,0.1,0.4
			c0.1,0.1,0.1,0.1,0.2,0.1c0,0-0.1,0.1-0.1,0.1c-0.1,0.1-0.3,0.1-0.4,0.1c-0.2,0-0.3,0-0.3,0.1c0,0.1,0,0.2,0.1,0.3
			c0.1,0.2,0.2,0.3,0.3,0.3c0.1,0,0.2-0.1,0.3-0.2c0.1-0.1,0.2-0.2,0.3-0.2c0,0,0.1,0,0.1,0c0,0.1,0,0.3,0.1,0.4
			c0.1,0.1,0.2,0.2,0.3,0.2C30.9,32.4,31.2,32.1,31.2,31.8z M30,31.3C30,31.3,30,31.3,30,31.3L30,31.3c-0.1,0-0.2,0-0.3-0.1
			c-0.1-0.1-0.1-0.2-0.1-0.3c0.1-0.1,0.2-0.3,0.4-0.3c0.2-0.1,0.5,0,0.7,0.2c0.3,0.3,0.5,0.7,0.4,1.1c0,0.1,0,0.1-0.1,0.2
			c-0.1,0.2-0.3,0.3-0.6,0.3c-0.1,0-0.2-0.1-0.3-0.2c-0.1-0.1-0.1-0.3-0.1-0.4v0h0c0,0-0.2,0.1-0.2,0.1c-0.1,0.1-0.2,0.1-0.3,0.2
			c-0.1,0.1-0.2,0.2-0.3,0.2c-0.1,0-0.1-0.1-0.2-0.2c-0.1-0.1-0.1-0.2,0-0.2c0-0.1,0.1-0.1,0.3-0.1c0.1,0,0.3-0.1,0.4-0.1
			C29.8,31.4,29.9,31.4,30,31.3L30,31.3C30,31.3,30,31.3,30,31.3z"/>
		<path class="st0" d="M30,31.6L30,31.6L30,31.6L30,31.6L30,31.6c0,0.1,0.2,0,0.4,0c0,0,0,0,0,0c0,0,0,0,0,0
			C30.2,31.5,30,31.6,30,31.6z"/>
		<path class="st0" d="M30,31.5L30,31.5L30,31.5c0,0,0.2-0.2,0.3-0.2l0,0v0l0,0h0C30.1,31.3,29.9,31.5,30,31.5L30,31.5
			C29.9,31.5,29.9,31.5,30,31.5z"/>
		<path class="st0" d="M30,31.6L30,31.6L30,31.6c0.1-0.1,0.4-0.2,0.4-0.2c0,0,0,0,0,0c0,0,0,0,0,0C30.4,31.4,30.1,31.5,30,31.6
			C30,31.5,30,31.6,30,31.6z"/>
	</g>
	<g>
		<path class="st0" d="M20.8,30c-0.5-0.5-1.1-0.7-1.2-0.5c-0.2,0.2,0.1,0.7,0.7,1.1c0.5,0.5,1.1,0.7,1.2,0.5
			C21.6,31,21.4,30.5,20.8,30z M20.4,30.6c-0.4-0.4-0.7-0.8-0.6-0.9c0.1-0.1,0.6,0.1,1,0.4c0.4,0.4,0.7,0.8,0.6,0.9
			C21.3,31.2,20.8,31,20.4,30.6z"/>
		<path class="st0" d="M21.5,31.2l-2.4,2.3l2.2-2.2L21.5,31.2z"/>
		<path class="st0" d="M19.1,33.4c-0.2,0.1-0.6,0-0.9-0.3c-0.3-0.3-0.5-0.6-0.5-0.8l1.7-2.5c0,0-1.8,2.4-1.8,2.4
			c-0.1,0.1,0.1,0.5,0.5,0.9C18.5,33.4,19,33.6,19.1,33.4C19.1,33.4,19.1,33.4,19.1,33.4z"/>
		<path class="st0" d="M22.3,29.9l-1.5,0.5c0,0,0,0,0,0c0,0,0,0,0,0C20.8,30.5,22.1,30.1,22.3,29.9c0,0.1-0.1,0.1-0.1,0.2
			c0,0,0,0,0,0c0,0,0,0,0,0.1c-0.2,0-1.3,0.5-1.3,0.5s0,0,0,0c0,0,0,0,0,0s-0.1,0-0.1-0.1c0,0,0,0,0,0s0,0,0,0
			c0,0.1,0.1,0.1,0.2,0.1c0,0,0.1,0,0.1,0c0,0,1.4-0.5,1.4-0.5c0,0,0,0,0,0l0,0c0,0,0,0,0,0c0,0-0.1,0-0.1-0.1c0,0,0,0,0,0
			C22.3,30,22.3,30,22.3,29.9L22.3,29.9L22.3,29.9C22.3,29.9,22.3,29.9,22.3,29.9z"/>
		<path class="st0" d="M19.3,30.7c-0.3-0.1-0.7,0-0.8,0.2c0,0,0,0,0,0c0,0.1,0.3,0.3,0.4,0.3c0,0,0,0,0,0c0,0,0,0,0,0c0,0,0,0,0,0
			c0,0,0,0,0,0c-0.1,0-0.2-0.1-0.3-0.2c0,0,0.1-0.1,0.1-0.1c0.1-0.1,0.4-0.1,0.5,0c0.2,0,0.1,0.1,0.1,0.2c0,0,0,0,0,0.1
			c0,0,0,0,0.1,0C19.5,30.9,19.5,30.8,19.3,30.7z"/>
		<path class="st0" d="M19.6,31.3c0-0.1-0.2-0.1-0.2-0.1s0,0,0,0s0,0,0,0c-0.1,0-0.3,0-0.4,0.1c0,0,0,0,0,0c0,0,0,0,0,0
			c0.1,0.1,0.4,0.2,0.6,0.1c0.1,0,0.1-0.1,0.1-0.1C19.6,31.4,19.6,31.3,19.6,31.3z M19.5,31.3C19.5,31.3,19.5,31.4,19.5,31.3
			C19.5,31.4,19.5,31.4,19.5,31.3C19.4,31.4,19.4,31.4,19.5,31.3c-0.2,0.1-0.4,0.1-0.5,0C19.1,31.3,19.3,31.3,19.5,31.3
			C19.4,31.3,19.4,31.3,19.5,31.3L19.5,31.3C19.5,31.3,19.5,31.3,19.5,31.3z"/>
		<path class="st0" d="M19.9,31.4C19.9,31.4,19.8,31.4,19.9,31.4c-0.2,0-0.3,0.1-0.4,0.1s-0.2,0.1-0.4,0.1c0,0,0,0,0,0.1
			c0,0,0,0,0.1,0c0.1,0,0.2-0.1,0.3-0.1C19.6,31.6,19.7,31.5,19.9,31.4C19.9,31.5,19.9,31.5,19.9,31.4z"/>
		<path class="st0" d="M19.8,31.7c-0.1,0-0.2,0-0.4,0c-0.1,0-0.1,0-0.2,0c0,0,0,0,0,0c0,0,0,0,0,0c0.1,0,0.1,0,0.2,0
			C19.6,31.8,19.7,31.8,19.8,31.7C19.9,31.8,19.9,31.8,19.8,31.7C19.9,31.7,19.9,31.7,19.8,31.7z"/>
		<path class="st0" d="M19.4,31.7C19.4,31.7,19.4,31.7,19.4,31.7c-0.1,0.1-0.1,0.1-0.1,0.2c0,0,0,0.1-0.1,0.1c0,0,0,0,0.1,0
			c0,0,0,0,0,0.1c0,0,0-0.1,0.1-0.1C19.4,31.9,19.4,31.8,19.4,31.7C19.5,31.7,19.4,31.7,19.4,31.7z"/>
		<path class="st0" d="M20,32.1c-0.1-0.1-0.2-0.2-0.4-0.2c-0.1,0-0.2,0.1-0.2,0.2c0,0,0,0.2,0.2,0.2c0,0,0,0,0.1,0c0,0,0,0,0-0.1
			c-0.1,0-0.1-0.1-0.1-0.1c0,0,0,0,0-0.1c0,0,0,0,0,0C19.7,32.2,19.9,32.2,20,32.1C20,32.2,20,32.1,20,32.1C20,32.1,20,32.1,20,32.1
			z M19.7,32c0,0,0.2,0,0.2,0.1C19.8,32.1,19.7,32,19.7,32C19.6,32,19.6,32,19.7,32z"/>
		<path class="st0" d="M19.6,30.3c0,0,0.3,0.9,0.9,1.7l-0.1,0.1C20.4,32.1,19.8,31.4,19.6,30.3z"/>
		<path class="st0" d="M18.6,31.2c0,0,0.5,0.8,1.3,1.4l-0.1,0.1C19.8,32.7,19,32.2,18.6,31.2z"/>
	</g>
	<path class="st0" d="M38.2,33.9c0.1,0,0.1-0.1,0.2-0.1l1.5-2.6c0,0,0.2,0.1,0.2,0.1c0.1,0,0.2,0.1,0.2,0.1c0.1,0,0.1-0.1,0.2-0.1
		l0.7-1.5c0.1-0.1,0-0.3-0.1-0.4c0,0,0,0,0,0s0,0,0,0c0,0-0.7,1.1-0.7,1.1c0,0-0.1,0-0.1-0.1c0-0.1,0.7-1.1,0.7-1.1c0,0,0,0,0,0
		c0,0,0,0,0,0l-0.2-0.1c0,0,0,0,0,0c0,0-0.7,1-0.7,1.1c0,0-0.1,0-0.1-0.1c0-0.1,0.8-1,0.8-1c0,0,0,0,0,0s0,0,0,0
		c-0.1-0.1-0.3,0-0.4,0.1l-1.1,1.2c0,0.1-0.1,0.1-0.1,0.2s0.1,0.1,0.1,0.2c0,0,0.2,0.1,0.3,0.1l-1.8,2.3c0,0.1-0.1,0.2-0.1,0.2
		c0,0.1,0.1,0.2,0.2,0.2l0.1,0.1C38.1,33.9,38.2,34,38.2,33.9z M39.9,31.2C39.9,31.2,39.9,31.2,39.9,31.2L39.9,31.2l-1.6,2.6
		c0,0-0.1,0.1-0.1,0.1s-0.1,0-0.2,0l-0.1-0.1c-0.1,0-0.1-0.1-0.1-0.2c0,0,0-0.1,0-0.1l1.8-2.4l0,0c0,0,0,0,0,0c0,0,0,0,0,0l-0.3-0.1
		c0,0-0.1-0.1-0.1-0.1l0,0c0-0.1,0-0.1,0-0.2l1-1.2c0.1-0.1,0.2-0.1,0.3-0.1c0,0.1-0.8,1-0.8,1c0,0,0,0,0,0l0,0l0.1,0.1c0,0,0,0,0,0
		l0,0c0,0,0.7-1,0.7-1.1c0,0,0.1,0.1,0.1,0.1c0,0.1-0.7,1.1-0.7,1.1c0,0,0,0,0,0c0,0,0,0,0,0l0.2,0.1c0,0,0,0,0,0s0,0,0,0
		s0.6-1,0.7-1.1c0,0,0.1,0.1,0.1,0.1s0,0.1,0,0.2l-0.7,1.4c0,0.1-0.1,0.1-0.1,0.1c-0.1,0-0.1,0-0.2,0L39.9,31.2
		C39.9,31.1,39.9,31.1,39.9,31.2z"/>
	<g>
		<path class="st0" d="M26.7,31.5c0.2-0.5,0.3-1,0.1-1.1c-0.2-0.1-0.5,0.3-0.8,0.8s-0.3,1-0.1,1.1C26.1,32.4,26.5,32,26.7,31.5z
			 M26.1,31.2c0.2-0.5,0.5-0.8,0.6-0.7c0.2,0.1,0.1,0.5-0.1,1c-0.2,0.5-0.5,0.8-0.6,0.7C25.8,32.1,25.9,31.7,26.1,31.2z"/>
		<path class="st0" d="M27.1,31.6c0.2-0.4,0.2-0.8,0.1-0.9s-0.4,0.2-0.6,0.6c-0.2,0.4-0.2,0.8-0.1,0.9C26.6,32.3,26.9,32,27.1,31.6z
			 M26.6,31.4c0.2-0.4,0.4-0.6,0.5-0.5c0.1,0.1,0.1,0.4-0.1,0.7c-0.2,0.4-0.4,0.6-0.5,0.5C26.4,32.1,26.4,31.8,26.6,31.4z"/>
		<path class="st0" d="M26,32.3l-2.2-1.2l2.1,1.1L26,32.3z"/>
		<path class="st0" d="M23.9,31.1c-0.1-0.1-0.1-0.5,0-0.8c0.1-0.3,0.4-0.6,0.5-0.6l2.1,0.6c0,0-2.1-0.7-2.1-0.7
			c-0.1-0.1-0.4,0.2-0.6,0.6C23.7,30.6,23.7,31,23.9,31.1C23.8,31.1,23.8,31.1,23.9,31.1z"/>
		<path class="st0" d="M27.2,30.7l-0.5-0.1l0.4,0.2L27.2,30.7z"/>
		<path class="st0" d="M26.5,32.3L26,32l0.4,0.2L26.5,32.3z"/>
		<path class="st0" d="M26.6,30.7c0,0-0.4,0.2-0.5,0.7c0,0,0.2-0.5,0.6-0.7L26.6,30.7z"/>
		<path class="st0" d="M27,31.3c0,0,0-0.1,0-0.1c0-0.1,0.1-0.1,0.1-0.1c0,0,0,0.1,0,0.1C27,31.3,27,31.3,27,31.3z"/>
		<path class="st0" d="M26.7,32c0,0,0-0.1,0-0.1s0.1-0.1,0.1-0.1c0,0,0,0.1,0,0.1C26.7,31.9,26.7,32,26.7,32z"/>
		<path class="st0" d="M26.7,31.6c0,0,0-0.1,0-0.1s0.1-0.1,0.1-0.1c0,0,0,0.1,0,0.1C26.8,31.6,26.7,31.6,26.7,31.6z"/>
		<path class="st0" d="M26.9,31.7c0,0,0-0.1,0-0.1c0-0.1,0.1-0.1,0.1-0.1c0,0,0,0.1,0,0.1C26.9,31.7,26.9,31.7,26.9,31.7z"/>
		<path class="st0" d="M27.5,32.4l-0.2,0l0,0.1l0.2,0L27.5,32.4z"/>
		<path class="st0" d="M27.4,33l-0.2-0.1c-0.1,0.1,0,0.2,0,0.2L27.4,33z"/>
		<path class="st0" d="M27.2,33.5l-0.2-0.2L27,33.5C27.1,33.6,27.2,33.5,27.2,33.5z"/>
		<path class="st0" d="M27.6,34l-0.1-0.1C27.4,34,27.4,34,27.4,34l0.1,0.2L27.6,34z"/>
		<path class="st0" d="M26.5,33.6l-0.1-0.2c-0.1,0-0.1,0.2-0.1,0.2L26.5,33.6z"/>
		<path class="st0" d="M27,34.1L26.7,34l0,0.2C26.8,34.2,27,34.1,27,34.1z"/>
	</g>
	<g>
		<path class="st0" d="M12.6,32.2c0.1,0.1,0.3,0.1,0.5,0.1c0.1,0.1,0.2,0.2,0.4,0.3c0.6,0.2,1.2-0.1,1.5-0.7
			c0.3-0.6-0.1-1.4-0.6-1.7c-0.1,0-0.2-0.1-0.3-0.1c-0.1-0.1-0.2-0.1-0.3-0.2c-0.6-0.2-1.4,0.1-1.7,0.7C11.7,31.3,12,32,12.6,32.2z
			 M13.6,30.1c0.1,0,0.2,0.1,0.2,0.2c0.1,0,0.2,0,0.3,0.1c0.5,0.2,0.8,0.9,0.6,1.5c-0.2,0.5-0.8,0.8-1.3,0.6c-0.1,0-0.2-0.1-0.3-0.2
			c-0.1,0-0.3,0-0.4-0.1c-0.5-0.2-0.7-0.8-0.5-1.3C12.4,30.2,13.1,29.9,13.6,30.1z"/>
		<path class="st0" d="M12.5,31.6C12.6,32,12.9,32,13,32c0.3,0.4,0.7,0.3,0.7,0.3c-0.2,0-0.4-0.2-0.4-0.2s0.2,0.1,0.5,0
			c0,0-0.1,0-0.4-0.1c0,0,0.1-0.1,0.1-0.3l-0.4,0.1c0,0-0.2-0.1-0.3-0.3c0,0-0.1,0,0,0.2C12.8,31.8,12.5,31.6,12.5,31.6z"/>
		<path class="st0" d="M14.2,30.6c0.2,0.2,0.4,0.5,0.4,1C14.7,31.6,14.7,31,14.2,30.6L14.2,30.6z"/>
		<path class="st0" d="M14.1,30.6L14.1,30.6c0-0.1-0.1-0.2-0.2-0.2l0,0.1C13.9,30.4,14,30.5,14.1,30.6z"/>
	</g>
	<g>
		<path class="st0" d="M36.1,30.9c0-0.1-0.1-0.1-0.1-0.2c-0.1-0.8-0.6-0.6-0.8-0.5c-0.2-0.7-0.7-0.5-0.8-0.4c0.2,0,0.6,0,0.8,0.4
			c0,0,0,0,0,0c0,0,0,0,0,0c0,0,0,0.1,0,0.1c0,0,0-0.1,0-0.1c0.2,0,0.6,0,0.8,0.4c-0.3-0.3-0.7-0.2-0.9-0.2
			c-0.1-0.2-0.3-0.6-0.9-0.6c0,0-0.6,0-0.7,0.7c0,0,0,0.6-0.1,0.9c0,0-0.4,0.7,0.1,0.9c0,0,0.2,0.2,0.5,0.1c0.1,0.3,0.4,0.4,0.4,0.4
			c0.5,0.2,0.8-0.4,0.8-0.4c0.2-0.2,0.7-0.6,0.7-0.6C36.5,31.4,36.1,30.9,36.1,30.9z M35.7,31.9c0,0-0.4,0.4-0.6,0.6
			c0,0-0.3,0.6-0.7,0.4c0,0-0.2,0-0.3-0.3c0.1,0,0.2,0,0.3-0.1c-0.2,0.1-0.4,0-0.4,0c-0.2-0.1-0.2-0.3-0.2-0.4c0,0.1,0,0.3,0.1,0.4
			c-0.3,0-0.4-0.1-0.4-0.1c-0.4-0.2-0.1-0.8-0.1-0.8c0-0.3,0.1-0.9,0.1-0.9c0.1-0.7,0.6-0.7,0.6-0.7c0.5-0.1,0.7,0.3,0.8,0.5
			c-0.2-0.1-0.4,0-0.5,0.1c0.3,0,0.7,0,0.9,0.6c0-0.4-0.2-0.5-0.3-0.6c0.2,0,0.6-0.1,0.9,0.4C35.9,31,36.3,31.4,35.7,31.9z"/>
		<path class="st0" d="M35.4,31.2L35.4,31.2L35.4,31.2L35.4,31.2z"/>
		<path class="st0" d="M35.2,30.4L35.2,30.4L35.2,30.4L35.2,30.4z"/>
		<path class="st0" d="M35.6,29.8c0,0-0.3,0-0.5,0.7c0,0,0.3-0.5,0.7-0.5C35.9,30,35.9,29.7,35.6,29.8z"/>
	</g>
	<g>
		<path class="st0" d="M1.6,32.4c0,0,0.9-0.6,1.1-1.1c0,0,0-0.2-0.3-0.4c-0.4-0.2-0.6-0.4-0.8-0.5C1.5,30.3,1,30.1,1,30.1
			s-0.4-0.3-0.2,0.2c0,0,0.1,0.5,0.3,1s0.1,0.8,0.2,1.2C1.3,32.4,1.3,32.6,1.6,32.4z M1.3,32.2c-0.1-0.3-0.1-0.6-0.2-1
			c-0.1-0.4-0.2-0.9-0.2-0.9c-0.1-0.4,0.2-0.1,0.2-0.1s0.4,0.2,0.5,0.3c0.1,0.1,0.4,0.3,0.7,0.4s0.3,0.3,0.3,0.3c-0.2,0.5-1,1-1,1
			C1.4,32.4,1.3,32.2,1.3,32.2z"/>
		<path class="st0" d="M2.9,31.3c0,0,1.2,0.3,1.2,0.6c0,0-0.6,1-1.6,1.1l-1.1-0.5c0,0,0.2,0,0.9,0.3c0,0,0.2,0.2,0.3,0.1
			c0,0,0.8-0.2,1.2-0.9c0,0,0.1-0.2-0.3-0.3C3.5,31.6,2.6,31.2,2.9,31.3z"/>
		<path class="st0" d="M1,30c0,0,1.1,0.3,1.4,0.4c0,0,1.3,0.9,1.7,1.3c0,0,0,0.1-0.6-0.4s-1-0.8-1-0.8S1.3,30.2,1,30z"/>
	</g>
	<g>
		<path class="st0" d="M6.7,31.1c-0.3,0.1-0.8,0.5-0.8,1.1c0.1,0.6,0,0.8,0,0.8s-0.3,0.3,0.5-0.2c0.9-0.6,0.7-1.1,0.7-1.4
			c0-0.3,0-0.5,0-0.5C7,31,6.7,31.1,6.7,31.1z M7,31.5c0,0.2,0.1,0.7-0.6,1.2C5.8,33.1,6,32.8,6,32.8s0.1-0.2,0-0.7
			c-0.1-0.5,0.3-0.8,0.6-0.9c0,0,0.2,0,0.3-0.1c0,0.1,0,0.1-0.1,0.3c-0.3,0.3-0.7,0.4-0.7,0.4c0.4-0.1,0.6-0.2,0.7-0.3
			c0,0.1-0.1,0.2-0.1,0.2c-0.3,0.2-0.5,0.4-0.5,0.4c0.2-0.1,0.4-0.2,0.5-0.2c-0.1,0.2-0.3,0.5-0.4,0.7c0,0,0.2-0.2,0.4-0.5l0,0
			c0,0.2-0.1,0.5-0.1,0.5c0.1-0.2,0.1-0.4,0.1-0.5c0-0.1,0.1-0.2,0.2-0.3v0c0.1,0.2,0,0.5,0,0.5c0.1-0.2,0-0.5,0-0.6
			c0-0.1,0.1-0.2,0.1-0.3C7,31.4,7,31.4,7,31.5z M7,31.1L7,31.1C7,31.1,7,31.1,7,31.1C7.1,31.1,7,31.1,7,31.1z"/>
		<path class="st0" d="M7.8,31C8,31.3,8.4,31.7,9,31.4c0.5-0.2,0.8-0.2,0.8-0.2s0.4,0.2-0.3-0.4c-0.8-0.7-1.3-0.4-1.5-0.3
			c-0.3,0.1-0.5,0.1-0.5,0.1C7.6,30.7,7.8,31,7.8,31z M8.1,30.5c0.2-0.1,0.6-0.3,1.3,0.3c0.6,0.5,0.2,0.4,0.2,0.4s-0.2,0-0.7,0.2
			c-0.5,0.2-0.9-0.1-1.1-0.4c0,0-0.1-0.2-0.2-0.3c0,0,0.1,0,0.3,0c0.4,0.3,0.6,0.6,0.6,0.6c-0.2-0.3-0.4-0.5-0.5-0.6
			c0.1,0,0.2,0,0.3,0c0.3,0.2,0.5,0.4,0.5,0.4c-0.1-0.2-0.3-0.3-0.4-0.4c0.2,0,0.5,0.1,0.8,0.2c0,0-0.3-0.1-0.6-0.2l0,0
			c0.2-0.1,0.5-0.1,0.5-0.1c-0.2-0.1-0.4,0-0.6,0c-0.1,0-0.2-0.1-0.3-0.1h0c0.2-0.2,0.5-0.2,0.5-0.2c-0.2,0-0.5,0.1-0.6,0.1
			c-0.1,0-0.2,0-0.4,0C7.9,30.6,8,30.6,8.1,30.5z M7.7,30.6L7.7,30.6C7.6,30.6,7.6,30.6,7.7,30.6C7.6,30.6,7.6,30.6,7.7,30.6z"/>
	</g>
	<g>
		<path class="st0" d="M31.2,37.3c0.1-0.4-0.1-0.9-0.5-1.2c-0.2-0.2-0.5-0.3-0.8-0.2c-0.1,0-0.3,0.2-0.4,0.4c-0.1,0.2,0,0.3,0.1,0.4
			c0.1,0.1,0.1,0.1,0.2,0.1c0,0-0.1,0.1-0.1,0.1C29.6,37,29.4,37,29.3,37c-0.2,0-0.3,0-0.3,0.1c0,0.1,0,0.2,0.1,0.3
			c0.1,0.2,0.2,0.3,0.3,0.3c0.1,0,0.2-0.1,0.3-0.2c0.1-0.1,0.2-0.2,0.3-0.2c0,0,0.1,0,0.1,0c0,0.1,0,0.3,0.1,0.4
			c0.1,0.1,0.2,0.2,0.3,0.2C30.9,37.9,31.2,37.6,31.2,37.3z M30,36.8C30,36.8,30,36.8,30,36.8L30,36.8c-0.1,0-0.2,0-0.3-0.1
			c-0.1-0.1-0.1-0.2-0.1-0.3c0.1-0.1,0.2-0.3,0.4-0.3c0.2-0.1,0.5,0,0.7,0.2c0.3,0.3,0.5,0.7,0.4,1.1c0,0.1,0,0.1-0.1,0.2
			c-0.1,0.2-0.3,0.3-0.6,0.3c-0.1,0-0.2-0.1-0.3-0.2c-0.1-0.1-0.1-0.3-0.1-0.4v0h0c0,0-0.2,0.1-0.2,0.1c-0.1,0.1-0.2,0.1-0.3,0.2
			c-0.1,0.1-0.2,0.2-0.3,0.2c-0.1,0-0.1-0.1-0.2-0.2c-0.1-0.1-0.1-0.2,0-0.2c0-0.1,0.1-0.1,0.3-0.1c0.1,0,0.3-0.1,0.4-0.1
			C29.8,36.9,29.9,36.9,30,36.8L30,36.8C30,36.8,30,36.8,30,36.8z"/>
		<path class="st0" d="M30,37.1L30,37.1L30,37.1L30,37.1L30,37.1c0,0.1,0.2,0,0.4,0c0,0,0,0,0,0c0,0,0,0,0,0
			C30.2,37,30,37.1,30,37.1z"/>
		<path class="st0" d="M30,37L30,37L30,37c0,0,0.2-0.2,0.3-0.2l0,0v0l0,0h0C30.1,36.8,29.9,36.9,30,37L30,37C29.9,37,29.9,37,30,37z
			"/>
		<path class="st0" d="M30,37.1L30,37.1L30,37.1c0.1-0.1,0.4-0.2,0.4-0.2c0,0,0,0,0,0c0,0,0,0,0,0C30.4,36.9,30.1,37,30,37.1
			C30,37,30,37.1,30,37.1z"/>
	</g>
	<g>
		<path class="st0" d="M9,35.4c-0.5-0.5-1.1-0.7-1.2-0.5c-0.2,0.2,0.1,0.7,0.7,1.1c0.5,0.5,1.1,0.7,1.2,0.5
			C9.8,36.4,9.5,35.9,9,35.4z M8.5,36c-0.4-0.4-0.7-0.8-0.6-0.9c0.1-0.1,0.6,0.1,1,0.4c0.4,0.4,0.7,0.8,0.6,0.9
			C9.4,36.6,8.9,36.4,8.5,36z"/>
		<path class="st0" d="M9.6,36.6l-2.4,2.3l2.2-2.2L9.6,36.6z"/>
		<path class="st0" d="M7.2,38.8c-0.2,0.1-0.6,0-0.9-0.3c-0.3-0.3-0.5-0.6-0.5-0.8l1.7-2.5c0,0-1.8,2.4-1.8,2.4
			c-0.1,0.1,0.1,0.5,0.5,0.9C6.7,38.8,7.1,39,7.2,38.8C7.2,38.8,7.2,38.8,7.2,38.8z"/>
		<path class="st0" d="M10.4,35.3l-1.5,0.5c0,0,0,0,0,0c0,0,0,0,0,0C8.9,35.9,10.2,35.5,10.4,35.3c0,0.1-0.1,0.1-0.1,0.2
			c0,0,0,0,0,0c0,0,0,0,0,0.1c-0.2,0-1.3,0.5-1.3,0.5s0,0,0,0c0,0,0,0,0,0S9,36.1,9,36c0,0,0,0,0,0c0,0,0,0,0,0
			c0,0.1,0.1,0.1,0.2,0.1c0,0,0.1,0,0.1,0c0,0,1.4-0.5,1.4-0.5c0,0,0,0,0,0l0,0c0,0,0,0,0,0c0,0-0.1,0-0.1-0.1c0,0,0,0,0,0
			C10.4,35.4,10.5,35.4,10.4,35.3L10.4,35.3L10.4,35.3C10.4,35.3,10.4,35.3,10.4,35.3z"/>
		<path class="st0" d="M7.4,36.1c-0.3-0.1-0.7,0-0.8,0.2c0,0,0,0,0,0c0,0.1,0.3,0.3,0.4,0.3c0,0,0,0,0,0c0,0,0,0,0,0c0,0,0,0,0,0
			c0,0,0,0,0,0c-0.1,0-0.2-0.1-0.3-0.2c0,0,0.1-0.1,0.1-0.1c0.1-0.1,0.4-0.1,0.5,0c0.2,0,0.1,0.1,0.1,0.2s0,0,0,0.1c0,0,0,0,0.1,0
			C7.7,36.3,7.6,36.2,7.4,36.1z"/>
		<path class="st0" d="M7.7,36.7c0-0.1-0.2-0.1-0.2-0.1c0,0,0,0,0,0c0,0,0,0,0,0c-0.1,0-0.3,0-0.4,0.1c0,0,0,0,0,0c0,0,0,0,0,0
			C7,36.9,7.4,37,7.5,36.9c0.1,0,0.1-0.1,0.1-0.1C7.7,36.8,7.7,36.7,7.7,36.7z M7.6,36.7C7.6,36.7,7.6,36.8,7.6,36.7
			C7.6,36.8,7.6,36.8,7.6,36.7C7.5,36.8,7.5,36.8,7.6,36.7c-0.2,0.1-0.4,0.1-0.5,0C7.2,36.7,7.4,36.7,7.6,36.7
			C7.5,36.7,7.6,36.7,7.6,36.7L7.6,36.7C7.6,36.7,7.6,36.7,7.6,36.7z"/>
		<path class="st0" d="M8,36.8C8,36.8,7.9,36.8,8,36.8c-0.2,0-0.3,0.1-0.4,0.1c-0.1,0-0.2,0.1-0.4,0.1c0,0,0,0,0,0.1c0,0,0,0,0.1,0
			c0.1,0,0.2-0.1,0.3-0.1C7.7,37,7.8,36.9,8,36.8C8,36.9,8,36.9,8,36.8z"/>
		<path class="st0" d="M7.9,37.1c-0.1,0-0.2,0-0.4,0c-0.1,0-0.1,0-0.2,0c0,0,0,0,0,0c0,0,0,0,0,0c0.1,0,0.1,0,0.2,0
			C7.7,37.2,7.8,37.2,7.9,37.1C8,37.2,8,37.2,7.9,37.1C8,37.1,8,37.1,7.9,37.1z"/>
		<path class="st0" d="M7.5,37.1C7.5,37.1,7.5,37.1,7.5,37.1c-0.1,0.1-0.1,0.1-0.1,0.2c0,0,0,0.1-0.1,0.1c0,0,0,0,0.1,0
			c0,0,0,0,0,0.1c0,0,0-0.1,0.1-0.1C7.5,37.3,7.5,37.2,7.5,37.1C7.6,37.1,7.6,37.1,7.5,37.1z"/>
		<path class="st0" d="M8.1,37.5c-0.1-0.1-0.2-0.2-0.4-0.2c-0.1,0-0.2,0.1-0.2,0.2c0,0,0,0.2,0.2,0.2c0,0,0,0,0.1,0c0,0,0,0,0-0.1
			c-0.1,0-0.1-0.1-0.1-0.1c0,0,0,0,0-0.1c0,0,0,0,0,0C7.8,37.6,8,37.6,8.1,37.5C8.1,37.5,8.1,37.5,8.1,37.5
			C8.1,37.5,8.1,37.5,8.1,37.5z M7.8,37.4c0,0,0.2,0,0.2,0.1C7.9,37.5,7.8,37.4,7.8,37.4C7.8,37.4,7.8,37.4,7.8,37.4z"/>
		<path class="st0" d="M7.8,35.7c0,0,0.3,0.9,0.9,1.7l-0.1,0.1C8.5,37.5,7.9,36.8,7.8,35.7z"/>
		<path class="st0" d="M6.7,36.6c0,0,0.5,0.8,1.3,1.4l-0.1,0.1C7.9,38.1,7.1,37.6,6.7,36.6z"/>
	</g>
	<path class="st0" d="M26.6,35.2c-0.1,0-0.2,0-0.2,0l-2.5,1.7c0-0.1-0.1-0.2-0.1-0.2c0-0.1-0.1-0.2-0.2-0.2c-0.1,0-0.1,0-0.2,0
		l-1.3,1C22,37.7,22,37.9,22.1,38c0,0,0,0,0,0c0,0,0,0,0,0c0,0,1-0.7,1.1-0.7c0,0,0,0.1,0.1,0.1c-0.1,0-1.1,0.7-1.1,0.7s0,0,0,0
		c0,0,0,0,0,0l0.1,0.2c0,0,0,0,0,0c0,0,1.1-0.6,1.1-0.7c0,0,0,0.1,0.1,0.1c-0.1,0-1.2,0.6-1.2,0.6s0,0,0,0s0,0,0,0
		c0.1,0.1,0.3,0.2,0.4,0.1l1.5-0.7c0.1,0,0.1-0.1,0.1-0.2c0-0.1,0-0.1,0-0.2c0,0-0.2-0.2-0.2-0.2l2.6-1.4c0.1,0,0.1-0.1,0.2-0.2
		c0-0.1,0-0.2-0.1-0.3l-0.1-0.1C26.7,35.2,26.7,35.2,26.6,35.2z M23.9,37C23.9,37,23.9,37,23.9,37L23.9,37l2.5-1.7c0,0,0.1,0,0.1,0
		c0.1,0,0.1,0,0.1,0.1l0.1,0.1c0,0.1,0,0.1,0,0.2c0,0,0,0.1-0.1,0.1l-2.6,1.4l0,0c0,0,0,0,0,0s0,0,0,0l0.2,0.2c0,0,0,0.1,0,0.2l0,0
		c0,0.1,0,0.1-0.1,0.1l-1.5,0.7c-0.1,0-0.2,0-0.3,0c0.1,0,1.2-0.6,1.2-0.6s0,0,0,0c0,0,0,0,0,0l-0.1-0.2c0,0,0,0,0,0c0,0,0,0,0,0
		c0,0-1.1,0.6-1.1,0.7c0,0-0.1-0.1-0.1-0.1c0.1,0,1.1-0.7,1.1-0.7s0,0,0,0s0,0,0,0l-0.1-0.1c0,0,0,0,0,0c0,0,0,0,0,0
		c0,0-1,0.7-1.1,0.7c0,0,0-0.1,0-0.2c0,0,0-0.1,0.1-0.1l1.3-1c0,0,0.1,0,0.2,0c0.1,0,0.1,0,0.1,0.1L23.9,37C23.9,37,23.9,37,23.9,37
		z"/>
	<g>
		<path class="st0" d="M38.4,36.7c-0.5,0.3-0.8,0.7-0.7,0.9c0.1,0.2,0.6,0,1.1-0.3c0.5-0.3,0.8-0.7,0.7-0.9
			C39.4,36.3,38.9,36.4,38.4,36.7z M38.9,37.3c-0.4,0.3-0.8,0.4-0.9,0.2s0.2-0.5,0.6-0.8c0.4-0.3,0.8-0.4,0.9-0.2
			C39.6,36.7,39.3,37,38.9,37.3z"/>
		<path class="st0" d="M38.2,36.4c-0.4,0.2-0.6,0.6-0.5,0.7s0.5,0,0.8-0.2c0.4-0.2,0.6-0.6,0.5-0.7C39,36.1,38.6,36.2,38.2,36.4z
			 M38.6,36.8c-0.3,0.2-0.6,0.3-0.7,0.2c-0.1-0.1,0.1-0.4,0.5-0.6c0.3-0.2,0.6-0.3,0.7-0.2C39.1,36.4,38.9,36.6,38.6,36.8z"/>
		<path class="st0" d="M39.6,36.5l1.1,2.2l-1.1-2L39.6,36.5z"/>
		<path class="st0" d="M40.6,38.6c0,0.2-0.2,0.5-0.5,0.7c-0.3,0.2-0.6,0.3-0.8,0.2l-1.5-1.7c0,0,1.3,1.7,1.4,1.7
			c0.1,0.1,0.5,0,0.9-0.2S40.8,38.8,40.6,38.6C40.7,38.7,40.7,38.6,40.6,38.6z"/>
		<path class="st0" d="M37.7,37.1l0.4,0.3l-0.3-0.4L37.7,37.1z"/>
		<path class="st0" d="M39.1,36.2l0.3,0.5l-0.3-0.4V36.2z"/>
		<path class="st0" d="M38.1,37.5c0,0,0.4,0,0.8-0.3c0,0-0.5,0.3-0.9,0.2L38.1,37.5z"/>
		<path class="st0" d="M38.2,36.7c0,0,0,0.1-0.1,0.1c0,0-0.1,0-0.1,0c0,0,0-0.1,0.1-0.1C38.1,36.7,38.2,36.7,38.2,36.7z"/>
		<path class="st0" d="M38.8,36.3c0,0,0,0.1-0.1,0.1c0,0-0.1,0-0.1,0c0,0,0-0.1,0.1-0.1C38.7,36.3,38.8,36.3,38.8,36.3z"/>
		<path class="st0" d="M38.6,36.6c0,0,0,0.1-0.1,0.1c0,0-0.1,0-0.1,0c0,0,0-0.1,0.1-0.1C38.5,36.6,38.5,36.6,38.6,36.6z"/>
		<path class="st0" d="M38.5,36.5c0,0,0,0.1-0.1,0.1c0,0-0.1,0-0.1,0c0,0,0-0.1,0.1-0.1C38.4,36.5,38.5,36.4,38.5,36.5z"/>
		<path class="st0" d="M38.3,35.6l0.2,0.1l0-0.1l-0.1-0.1L38.3,35.6z"/>
		<path class="st0" d="M38.7,35.1l0.1,0.2c0.1,0,0.1-0.2,0.1-0.2L38.7,35.1z"/>
		<path class="st0" d="M39.1,34.7l0,0.2l0.1-0.1C39.3,34.7,39.1,34.7,39.1,34.7z"/>
		<path class="st0" d="M39.2,34.1v0.2c0.1,0,0.1,0,0.1,0l0-0.2L39.2,34.1z"/>
		<path class="st0" d="M39.8,35.1l0,0.2c0.1,0,0.2-0.2,0.2-0.2L39.8,35.1z"/>
		<path class="st0" d="M39.7,34.4l0.2,0.2l0.1-0.1C39.9,34.4,39.7,34.4,39.7,34.4z"/>
	</g>
	<g>
		<path class="st0" d="M1.3,37.8c0.1,0.1,0.3,0.1,0.5,0.1C1.9,38,2,38.1,2.1,38.2c0.6,0.2,1.2-0.1,1.5-0.7S3.5,36.1,3,35.8
			c-0.1,0-0.2-0.1-0.3-0.1c-0.1-0.1-0.2-0.1-0.3-0.2c-0.6-0.2-1.4,0.1-1.7,0.7C0.5,36.9,0.7,37.6,1.3,37.8z M2.4,35.7
			c0.1,0,0.2,0.1,0.2,0.2c0.1,0,0.2,0,0.3,0.1c0.5,0.2,0.8,0.9,0.6,1.5c-0.2,0.5-0.8,0.8-1.3,0.6c-0.1,0-0.2-0.1-0.3-0.2
			c-0.1,0-0.3,0-0.4-0.1c-0.5-0.2-0.7-0.8-0.5-1.3C1.1,35.8,1.9,35.5,2.4,35.7z"/>
		<path class="st0" d="M1.2,37.2c0.1,0.3,0.4,0.4,0.5,0.4c0.3,0.4,0.7,0.3,0.7,0.3c-0.2,0-0.4-0.2-0.4-0.2s0.2,0.1,0.5,0
			c0,0-0.1,0-0.4-0.1c0,0,0.1-0.1,0.1-0.3L2,37.4c0,0-0.2-0.1-0.3-0.3c0,0-0.1,0,0,0.2C1.5,37.4,1.2,37.2,1.2,37.2z"/>
		<path class="st0" d="M3,36.2c0.2,0.2,0.4,0.5,0.4,1C3.4,37.2,3.5,36.6,3,36.2L3,36.2z"/>
		<path class="st0" d="M2.9,36.1L2.9,36.1c0-0.1-0.1-0.2-0.2-0.2l0,0.1C2.6,36,2.8,36.1,2.9,36.1z"/>
	</g>
	<g>
		<path class="st0" d="M19.9,36.4c0-0.1-0.1-0.1-0.1-0.2c-0.1-0.8-0.6-0.6-0.8-0.5c-0.2-0.7-0.7-0.5-0.8-0.4c0.2,0,0.6,0,0.8,0.4
			c0,0,0,0,0,0c0,0,0,0,0,0c0,0,0,0.1,0,0.1c0,0,0-0.1,0-0.1c0.2,0,0.6,0,0.8,0.4C19.4,35.9,19,36,18.9,36c-0.1-0.2-0.3-0.6-0.9-0.6
			c0,0-0.6,0-0.7,0.7c0,0,0,0.6-0.1,0.9c0,0-0.4,0.7,0.1,0.9c0,0,0.2,0.2,0.5,0.1c0.1,0.3,0.4,0.4,0.4,0.4C18.6,38.7,19,38,19,38
			c0.2-0.2,0.7-0.6,0.7-0.6C20.2,36.9,19.9,36.4,19.9,36.4z M19.5,37.3c0,0-0.4,0.4-0.6,0.6c0,0-0.3,0.6-0.7,0.4c0,0-0.2,0-0.3-0.3
			c0.1,0,0.2,0,0.3-0.1c-0.2,0.1-0.4,0-0.4,0c-0.2-0.1-0.2-0.3-0.2-0.4c0,0.1,0,0.3,0.1,0.4c-0.3,0-0.4-0.1-0.4-0.1
			c-0.4-0.2-0.1-0.8-0.1-0.8c0-0.3,0.1-0.9,0.1-0.9c0.1-0.7,0.6-0.7,0.6-0.7c0.5-0.1,0.7,0.3,0.8,0.5c-0.2-0.1-0.4,0-0.5,0.1
			c0.3,0,0.7,0,0.9,0.6c0-0.4-0.2-0.5-0.3-0.6c0.2,0,0.6-0.1,0.9,0.4C19.7,36.4,20,36.9,19.5,37.3z"/>
		<path class="st0" d="M19.2,36.7L19.2,36.7L19.2,36.7L19.2,36.7z"/>
		<path class="st0" d="M19,35.9L19,35.9L19,35.9L19,35.9z"/>
		<path class="st0" d="M19.4,35.3c0,0-0.3,0-0.5,0.7c0,0,0.3-0.5,0.7-0.5C19.7,35.5,19.7,35.2,19.4,35.3z"/>
	</g>
	<g>
		<path class="st0" d="M12.9,36.5c0,0,0.8,0.7,1.4,0.8c0,0,0.2,0,0.3-0.4c0.1-0.4,0.2-0.7,0.3-0.9c0-0.2,0.1-0.7,0.1-0.7
			s0.2-0.4-0.2-0.2c0,0-0.5,0.3-0.9,0.5c-0.4,0.2-0.8,0.3-1,0.6C12.8,36.2,12.7,36.3,12.9,36.5z M13,36.2c0.2-0.2,0.5-0.3,0.9-0.5
			s0.8-0.5,0.8-0.5c0.4-0.2,0.2,0.1,0.2,0.1s-0.1,0.4-0.1,0.6c0,0.2-0.2,0.4-0.2,0.8c-0.1,0.3-0.2,0.4-0.2,0.4
			c-0.5-0.1-1.2-0.6-1.2-0.6C12.8,36.3,13,36.2,13,36.2z"/>
		<path class="st0" d="M14.3,37.5c0,0,0,1.3-0.2,1.3c0,0-1.1-0.3-1.6-1.2l0.2-1.2c0,0,0.1,0.2,0,0.9c0,0-0.1,0.2,0,0.3
			c0,0,0.4,0.7,1.2,0.9c0,0,0.2,0,0.2-0.3C14.2,38.2,14.3,37.1,14.3,37.5z"/>
		<path class="st0" d="M15,35.2c0,0,0,1.2,0,1.4c0,0-0.5,1.5-0.8,2c0,0-0.1,0.1,0.2-0.7c0.3-0.7,0.5-1.2,0.5-1.2S14.9,35.6,15,35.2z
			"/>
	</g>
	<g>
		<path class="st0" d="M35.1,35.8c0-0.4-0.4-0.9-1-0.9c-0.6,0-0.8-0.1-0.8-0.1s-0.3-0.3,0.1,0.5c0.4,0.9,1,0.9,1.3,0.9
			c0.3,0,0.5,0.1,0.5,0.1C35.2,36.2,35.1,35.8,35.1,35.8z M34.7,36.1c-0.2,0-0.7,0-1.1-0.7c-0.3-0.7-0.1-0.4-0.1-0.4
			s0.2,0.1,0.7,0.1c0.5,0,0.8,0.4,0.8,0.7c0,0,0,0.2,0.1,0.3c0,0-0.1-0.1-0.2-0.1c-0.2-0.4-0.3-0.8-0.3-0.8c0,0.4,0.2,0.6,0.2,0.7
			c-0.1,0-0.1-0.1-0.2-0.1c-0.2-0.3-0.3-0.6-0.3-0.6c0,0.2,0.1,0.4,0.2,0.5c-0.2-0.1-0.4-0.3-0.7-0.5c0,0,0.2,0.2,0.5,0.5l0,0
			c-0.2,0-0.5-0.1-0.5-0.1c0.1,0.1,0.4,0.2,0.5,0.2c0.1,0.1,0.2,0.1,0.3,0.2h0c-0.3,0.1-0.5,0-0.5,0c0.2,0.1,0.5,0.1,0.6,0.1
			c0.1,0.1,0.2,0.1,0.3,0.2C34.8,36.1,34.7,36.1,34.7,36.1z M35.1,36.2L35.1,36.2C35.1,36.2,35.1,36.2,35.1,36.2
			C35.1,36.2,35.1,36.2,35.1,36.2z"/>
		<path class="st0" d="M35.1,36.9c-0.3,0.1-0.8,0.6-0.6,1.2c0.2,0.6,0.1,0.8,0.1,0.8s-0.2,0.4,0.5-0.2c0.8-0.7,0.6-1.2,0.5-1.4
			c-0.1-0.3,0-0.5,0-0.5C35.4,36.8,35.1,36.9,35.1,36.9z M35.5,37.3c0,0.2,0.2,0.7-0.4,1.2c-0.6,0.5-0.4,0.2-0.4,0.2s0-0.2-0.1-0.7
			c-0.1-0.5,0.2-0.9,0.5-1c0,0,0.2-0.1,0.3-0.2c0,0,0,0.1,0,0.3c-0.3,0.3-0.7,0.5-0.7,0.5c0.3-0.1,0.5-0.3,0.6-0.4
			c0,0.1,0,0.2-0.1,0.3C35,37.8,34.8,38,34.8,38c0.2-0.1,0.3-0.2,0.4-0.3c-0.1,0.2-0.2,0.5-0.3,0.8c0,0,0.2-0.2,0.3-0.6l0,0
			c0.1,0.2,0,0.5,0,0.5c0.1-0.2,0.1-0.4,0-0.6c0-0.1,0.1-0.2,0.1-0.3v0c0.1,0.2,0.1,0.5,0.1,0.5c0.1-0.2,0-0.5-0.1-0.6
			c0-0.1,0.1-0.2,0.1-0.3C35.5,37.1,35.5,37.2,35.5,37.3z M35.5,36.9L35.5,36.9C35.4,36.8,35.5,36.8,35.5,36.9
			C35.5,36.8,35.5,36.8,35.5,36.9z"/>
	</g>
	<g>
		<path class="st0" d="M25.1,43.3c0.1-0.4-0.1-0.9-0.5-1.2c-0.2-0.2-0.5-0.3-0.8-0.2c-0.1,0-0.3,0.2-0.4,0.4c-0.1,0.2,0,0.3,0.1,0.4
			c0.1,0.1,0.1,0.1,0.2,0.1c0,0-0.1,0.1-0.1,0.1c-0.1,0.1-0.3,0.1-0.4,0.1c-0.2,0-0.3,0-0.3,0.1c0,0.1,0,0.2,0.1,0.3
			c0.1,0.2,0.2,0.3,0.3,0.3c0.1,0,0.2-0.1,0.3-0.2c0.1-0.1,0.2-0.2,0.3-0.2c0,0,0.1,0,0.1,0c0,0.1,0,0.3,0.1,0.4
			c0.1,0.1,0.2,0.2,0.3,0.2C24.7,43.9,25,43.6,25.1,43.3z M23.8,42.8C23.8,42.7,23.8,42.7,23.8,42.8L23.8,42.8c-0.1,0-0.2,0-0.3-0.1
			c-0.1-0.1-0.1-0.2-0.1-0.3c0.1-0.1,0.2-0.3,0.4-0.3c0.2-0.1,0.5,0,0.7,0.2c0.3,0.3,0.5,0.7,0.4,1.1c0,0.1,0,0.1-0.1,0.2
			c-0.1,0.2-0.3,0.3-0.6,0.3c-0.1,0-0.2-0.1-0.3-0.2C24,43.4,24,43.3,24,43.1v0h0c0,0-0.2,0.1-0.2,0.1c-0.1,0.1-0.2,0.1-0.3,0.2
			c-0.1,0.1-0.2,0.2-0.3,0.2c-0.1,0-0.1-0.1-0.2-0.2c-0.1-0.1-0.1-0.2,0-0.2c0-0.1,0.1-0.1,0.3-0.1c0.1,0,0.3-0.1,0.4-0.1
			C23.7,42.9,23.8,42.8,23.8,42.8L23.8,42.8C23.8,42.8,23.8,42.8,23.8,42.8z"/>
		<path class="st0" d="M23.8,43.1L23.8,43.1L23.8,43.1L23.8,43.1L23.8,43.1c0,0.1,0.2,0,0.4,0c0,0,0,0,0,0c0,0,0,0,0,0
			C24.1,43,23.8,43.1,23.8,43.1z"/>
		<path class="st0" d="M23.8,42.9L23.8,42.9L23.8,42.9c0,0,0.2-0.2,0.3-0.2l0,0v0l0,0h0C23.9,42.7,23.8,42.9,23.8,42.9L23.8,42.9
			C23.8,42.9,23.8,42.9,23.8,42.9z"/>
		<path class="st0" d="M23.8,43L23.8,43L23.8,43c0.1-0.1,0.4-0.2,0.4-0.2c0,0,0,0,0,0c0,0,0,0,0,0C24.2,42.8,23.9,42.9,23.8,43
			C23.8,43,23.8,43,23.8,43z"/>
	</g>
	<g>
		<path class="st0" d="M1.9,41.6c-0.5,0.5-0.7,1-0.6,1.2c0.2,0.2,0.7-0.1,1.2-0.6c0.5-0.5,0.7-1,0.6-1.2C3,40.8,2.4,41.1,1.9,41.6z
			 M2.5,42.1c-0.4,0.4-0.8,0.7-1,0.5s0.1-0.6,0.5-1c0.4-0.4,0.8-0.7,1-0.5C3.2,41.2,2.9,41.7,2.5,42.1z"/>
		<path class="st0" d="M3.1,41l2.2,2.5l-2.1-2.3L3.1,41z"/>
		<path class="st0" d="M5.2,43.4c0.1,0.2-0.1,0.5-0.4,0.9c-0.3,0.3-0.6,0.5-0.8,0.4L1.6,43c0,0,2.3,1.9,2.4,1.9
			c0.1,0.1,0.5-0.1,0.9-0.5C5.2,44,5.4,43.6,5.2,43.4C5.3,43.5,5.3,43.4,5.2,43.4z"/>
		<path class="st0" d="M1.9,40.1l0.5,1.5c0,0,0,0,0,0c0,0,0,0,0,0C2.4,41.6,2,40.3,1.9,40.1C2,40.2,2,40.2,2.1,40.2c0,0,0,0,0,0
			c0,0,0.1,0,0.1,0c0,0.2,0.4,1.3,0.4,1.3s0,0,0,0c0,0,0,0,0,0c0,0,0,0.1-0.1,0.1c0,0,0,0,0,0c0,0,0,0,0,0c0.1,0,0.1-0.1,0.1-0.1
			c0,0,0-0.1,0-0.1c0,0-0.4-1.4-0.4-1.4c0,0,0,0,0,0l0,0c0,0,0,0,0,0c0,0,0,0.1-0.1,0.1c0,0,0,0,0,0C2,40.1,2,40.1,1.9,40.1
			L1.9,40.1L1.9,40.1C1.9,40.1,1.9,40.1,1.9,40.1z"/>
		<path class="st0" d="M2.6,43.1c-0.1,0.3,0,0.7,0.2,0.8c0,0,0,0,0,0c0.1,0,0.3-0.3,0.3-0.4c0,0,0-0.1,0-0.1c0,0,0,0-0.1,0
			c0,0,0,0,0,0c0,0,0,0,0,0c0,0.1-0.1,0.2-0.2,0.3c0,0-0.1-0.1-0.1-0.1c-0.1-0.1-0.1-0.4,0-0.5c0.1-0.2,0.1-0.1,0.2-0.1
			c0,0,0,0,0.1,0c0,0,0,0,0-0.1C2.7,42.9,2.6,43,2.6,43.1z"/>
		<path class="st0" d="M3.2,42.9C3.1,43,3,43.1,3,43.1c0,0,0,0,0,0s0,0,0,0c0,0.1,0,0.3,0.1,0.4c0,0,0,0,0,0c0,0,0,0,0,0
			c0.1-0.1,0.2-0.4,0.2-0.6c0-0.1-0.1-0.1-0.1-0.2C3.2,42.9,3.2,42.9,3.2,42.9z M3.2,43C3.2,43,3.2,43,3.2,43C3.3,43,3.3,43,3.2,43
			C3.3,43.1,3.3,43.1,3.2,43c0.1,0.2,0,0.4,0,0.5C3.2,43.4,3.1,43.2,3.2,43C3.2,43.1,3.2,43,3.2,43L3.2,43C3.2,43,3.2,43,3.2,43z"/>
		<path class="st0" d="M3.3,42.6C3.3,42.6,3.3,42.7,3.3,42.6c0,0.2,0.1,0.3,0.1,0.4c0,0.1,0.1,0.2,0.1,0.4c0,0,0,0,0.1,0
			c0,0,0,0,0-0.1c0-0.1-0.1-0.2-0.1-0.4C3.5,42.9,3.4,42.8,3.3,42.6C3.4,42.6,3.4,42.6,3.3,42.6z"/>
		<path class="st0" d="M3.6,42.7c0,0.1,0,0.2-0.1,0.4c0,0.1,0,0.1,0,0.2c0,0,0,0,0,0.1c0,0,0,0,0.1,0c0-0.1,0-0.1,0-0.2
			c0-0.1,0.1-0.2,0.1-0.4C3.7,42.6,3.7,42.6,3.6,42.7C3.6,42.6,3.6,42.6,3.6,42.7z"/>
		<path class="st0" d="M3.6,43.1C3.5,43.1,3.6,43.1,3.6,43.1c0.1,0.1,0.1,0.1,0.2,0.1c0,0,0.1,0,0.1,0.1c0,0,0,0,0-0.1
			c0,0,0,0,0.1,0c0,0-0.1-0.1-0.1-0.1C3.7,43.1,3.7,43.1,3.6,43.1C3.6,43,3.6,43.1,3.6,43.1z"/>
		<path class="st0" d="M4,42.5c-0.1,0.1-0.3,0.2-0.2,0.4c0,0.1,0.1,0.2,0.2,0.2c0,0,0.2,0,0.2-0.2c0,0,0,0,0-0.1c0,0,0,0-0.1,0
			C4.1,42.9,4,43,4,43c0,0,0,0-0.1,0c0,0,0,0,0,0C4,42.8,4.1,42.6,4,42.5C4,42.5,4,42.5,4,42.5C4,42.5,4,42.5,4,42.5z M3.8,42.9
			c0,0,0-0.2,0.1-0.2C4,42.7,3.9,42.8,3.8,42.9C3.9,42.9,3.8,42.9,3.8,42.9z"/>
		<path class="st0" d="M2.2,42.8c0,0,0.9-0.2,1.7-0.8L4,42.1C4,42.1,3.3,42.7,2.2,42.8z"/>
		<path class="st0" d="M3,43.9c0,0,0.9-0.4,1.4-1.2l0.1,0.1C4.5,42.8,4,43.5,3,43.9z"/>
	</g>
	<path class="st0" d="M27,41.2c0,0.1,0,0.2,0.1,0.2l2.2,2c0,0-0.2,0.1-0.2,0.1c-0.1,0.1-0.1,0.1-0.1,0.2c0,0.1,0,0.1,0.1,0.2l1.3,1
		c0.1,0.1,0.3,0.1,0.4,0c0,0,0,0,0,0s0,0,0,0c0,0-0.9-0.9-1-0.9c0,0,0-0.1,0.1-0.1c0,0,0.9,0.9,0.9,0.9c0,0,0,0,0,0c0,0,0,0,0,0
		l0.2-0.2c0,0,0,0,0-0.1c0,0-0.9-0.9-0.9-0.9c0,0,0.1-0.1,0.1-0.1c0,0,0.9,1,0.9,1c0,0,0,0,0,0c0,0,0,0,0,0c0.1-0.1,0.1-0.3,0-0.4
		l-1-1.3c-0.1-0.1-0.1-0.1-0.2-0.1s-0.1,0-0.2,0.1c0,0-0.1,0.2-0.2,0.3l-1.9-2.2c0,0-0.2-0.1-0.2-0.1c-0.1,0-0.2,0.1-0.3,0.1
		L27.2,41C27.1,41,27,41.1,27,41.2z M29.4,43.4C29.4,43.3,29.4,43.3,29.4,43.4L29.4,43.4l-2.2-2.1c0,0-0.1-0.1-0.1-0.1
		c0-0.1,0-0.1,0.1-0.2l0.1-0.1c0,0,0.1-0.1,0.2-0.1s0.1,0,0.1,0.1l2,2.3l0,0c0,0,0,0,0,0s0,0,0,0l0.2-0.2c0,0,0.1-0.1,0.1-0.1l0,0
		c0.1,0,0.1,0,0.1,0.1l1,1.3c0.1,0.1,0.1,0.2,0,0.3c-0.1-0.1-0.9-1-0.9-1c0,0,0,0,0,0c0,0,0,0,0,0l-0.1,0.1c0,0,0,0,0,0c0,0,0,0,0,0
		c0,0,0.9,0.9,0.9,0.9c0,0-0.1,0.1-0.1,0.1c0,0-0.9-0.9-0.9-0.9c0,0,0,0,0,0c0,0,0,0,0,0l-0.1,0.1c0,0,0,0,0,0c0,0,0,0,0,0
		c0,0,0.9,0.8,1,0.9c0,0-0.1,0.1-0.1,0.1c-0.1,0-0.1,0-0.2-0.1l-1.3-1c0,0-0.1-0.1-0.1-0.1c0-0.1,0-0.1,0.1-0.2L29.4,43.4
		C29.4,43.4,29.4,43.4,29.4,43.4z"/>
	<g>
		<path class="st0" d="M33.1,43.2c0,0.6,0.1,1.1,0.3,1.1c0.2,0,0.4-0.5,0.4-1.1s-0.1-1.1-0.3-1.1C33.3,42.2,33.1,42.6,33.1,43.2z
			 M33.8,43.2c0,0.5-0.2,0.9-0.3,0.9c-0.2,0-0.3-0.4-0.3-0.9c0-0.5,0.2-0.9,0.3-0.9C33.7,42.3,33.8,42.7,33.8,43.2z"/>
		<path class="st0" d="M32.7,43.2c0,0.5,0.1,0.8,0.3,0.8c0.2,0,0.3-0.4,0.3-0.8c0-0.5-0.1-0.8-0.3-0.8
			C32.9,42.4,32.7,42.8,32.7,43.2z M33.3,43.2c0,0.4-0.1,0.7-0.2,0.7c-0.1,0-0.2-0.3-0.2-0.7c0-0.4,0.1-0.7,0.2-0.7
			S33.3,42.8,33.3,43.2z"/>
		<path class="st0" d="M33.5,42.2l2.5,0.3l-2.3-0.2L33.5,42.2z"/>
		<path class="st0" d="M35.9,42.5c0.2,0.1,0.3,0.4,0.3,0.8c0,0.4-0.1,0.7-0.3,0.7l-2.2,0.3c0,0,2.2-0.1,2.2-0.1
			c0.2,0,0.3-0.4,0.3-0.8C36.2,42.9,36.1,42.5,35.9,42.5C35.9,42.5,35.9,42.5,35.9,42.5z"/>
		<path class="st0" d="M33,44.1l0.5-0.1l-0.4,0L33,44.1z"/>
		<path class="st0" d="M33,42.4l0.6,0.1l-0.4,0L33,42.4z"/>
		<path class="st0" d="M33.5,43.9c0,0,0.3-0.3,0.2-0.8c0,0,0,0.6-0.3,0.9L33.5,43.9z"/>
		<path class="st0" d="M32.9,43.4c0,0,0,0.1,0.1,0.1c0,0.1,0,0.1,0,0.1c0,0,0-0.1-0.1-0.1C32.9,43.5,32.9,43.4,32.9,43.4z"/>
		<path class="st0" d="M33,42.7c0,0,0,0.1,0.1,0.1c0,0.1,0,0.1,0,0.1c0,0,0-0.1-0.1-0.1C32.9,42.8,32.9,42.7,33,42.7z"/>
		<path class="st0" d="M33.1,43c0,0,0,0.1,0.1,0.1c0,0.1,0,0.1,0,0.1c0,0,0-0.1-0.1-0.1C33,43.1,33,43.1,33.1,43z"/>
		<path class="st0" d="M32.9,43c0,0,0,0.1,0.1,0.1c0,0.1,0,0.1,0,0.1c0,0,0-0.1-0.1-0.1C32.8,43.1,32.9,43,32.9,43z"/>
		<path class="st0" d="M32.1,42.7l0.2-0.1l-0.1-0.1l-0.2,0L32.1,42.7z"/>
		<path class="st0" d="M31.9,42.1l0.3,0c0-0.1-0.1-0.2-0.1-0.2L31.9,42.1z"/>
		<path class="st0" d="M31.9,41.5l0.2,0.1l0-0.2C31.9,41.4,31.9,41.5,31.9,41.5z"/>
		<path class="st0" d="M31.3,41.1l0.1,0.1c0.1-0.1,0.1-0.1,0.1-0.1L31.5,41L31.3,41.1z"/>
		<path class="st0" d="M32.5,41.2l0.2,0.2c0.1-0.1,0-0.2,0-0.2L32.5,41.2z"/>
		<path class="st0" d="M31.9,40.9l0.3,0l0-0.2C31.9,40.7,31.9,40.9,31.9,40.9z"/>
	</g>
	<g>
		<path class="st0" d="M9.8,42.1c-0.2,0-0.3,0-0.5,0C9.2,42.1,9.1,42,9,42c-0.6-0.1-1.2,0.3-1.3,1c-0.1,0.6,0.4,1.4,1,1.5
			c0.1,0,0.2,0,0.3,0c0.1,0.1,0.2,0.1,0.3,0.1c0.6,0.1,1.3-0.4,1.5-1C10.8,42.8,10.4,42.2,9.8,42.1z M9.2,44.5
			c-0.1,0-0.2-0.1-0.3-0.1c-0.1,0-0.2,0-0.3,0c-0.5-0.1-1-0.8-0.9-1.3c0.1-0.6,0.6-1,1.2-0.9c0.1,0,0.3,0.1,0.4,0.2
			c0.1,0,0.3,0,0.4,0c0.5,0.1,0.9,0.6,0.8,1.2C10.4,44.1,9.8,44.6,9.2,44.5z"/>
		<path class="st0" d="M10,42.7c-0.1-0.3-0.4-0.3-0.6-0.3c-0.3-0.4-0.7-0.1-0.7-0.1c0.2,0,0.4,0.1,0.4,0.1s-0.2-0.1-0.5,0.2
			c0,0,0.1-0.1,0.4,0c0,0-0.1,0.1-0.1,0.3l0.3-0.2c0,0,0.2,0.1,0.4,0.2c0,0,0-0.1-0.1-0.2C9.7,42.6,10,42.7,10,42.7z"/>
		<path class="st0" d="M8.5,44c-0.2-0.1-0.5-0.4-0.6-0.9C7.9,43.2,7.9,43.8,8.5,44L8.5,44z"/>
		<path class="st0" d="M8.6,44.1L8.6,44.1c0,0.1,0.1,0.1,0.2,0.2l0-0.1C8.9,44.2,8.8,44.2,8.6,44.1z"/>
	</g>
	<g>
		<path class="st0" d="M14.1,41.4c-0.1,0-0.1,0-0.2,0.1c-0.8-0.1-0.7,0.4-0.7,0.7c-0.7,0-0.6,0.5-0.6,0.7c0-0.2,0.1-0.6,0.6-0.7
			c0,0,0,0,0,0c0,0,0,0,0-0.1c0,0,0.1,0,0.1,0c0,0-0.1,0-0.1,0c0-0.2,0.1-0.6,0.6-0.6c-0.4,0.2-0.4,0.6-0.4,0.8
			c-0.2,0-0.7,0.2-0.8,0.8c0,0-0.1,0.6,0.6,0.8c0,0,0.6,0.2,0.9,0.3c0,0,0.5,0.5,0.9,0.1c0,0,0.2-0.1,0.2-0.5
			c0.3-0.1,0.5-0.3,0.5-0.3c0.3-0.4-0.2-0.9-0.2-0.9c-0.2-0.2-0.4-0.8-0.4-0.8C14.7,41.2,14.1,41.4,14.1,41.4z M15,42
			c0,0,0.3,0.5,0.4,0.8c0,0,0.5,0.4,0.2,0.8c0,0-0.1,0.2-0.3,0.2c0-0.1,0.1-0.2,0-0.4c0,0.2-0.1,0.3-0.1,0.3
			c-0.2,0.2-0.3,0.2-0.5,0.1c0.1,0.1,0.3,0.1,0.5,0c0,0.3-0.2,0.4-0.2,0.4c-0.3,0.3-0.8-0.1-0.8-0.1c-0.2-0.1-0.8-0.3-0.8-0.3
			c-0.6-0.2-0.5-0.8-0.5-0.8c0-0.5,0.5-0.6,0.6-0.7c-0.1,0.2-0.1,0.4-0.1,0.5c0-0.3,0.2-0.7,0.8-0.7c-0.4,0-0.6,0-0.7,0.1
			c0-0.2,0.1-0.6,0.6-0.7C14.1,41.6,14.6,41.4,15,42z"/>
		<path class="st0" d="M14.2,42.2L14.2,42.2L14.2,42.2L14.2,42.2z"/>
		<path class="st0" d="M13.4,42.2L13.4,42.2L13.4,42.2L13.4,42.2z"/>
		<path class="st0" d="M12.9,41.6c0,0,0,0.3,0.6,0.7c0,0-0.4-0.4-0.3-0.9C13.2,41.4,12.9,41.3,12.9,41.6z"/>
	</g>
	<g>
		<path class="st0" d="M20.4,42.7c0,0-1-0.2-1.6,0c0,0-0.2,0.1,0,0.5c0.1,0.4,0.1,0.7,0.2,0.9c0.1,0.2,0.2,0.7,0.2,0.7s0,0.5,0.3,0
			c0,0,0.3-0.5,0.5-0.9c0.2-0.4,0.5-0.6,0.6-1C20.6,42.9,20.7,42.8,20.4,42.7z M20.5,43c-0.1,0.3-0.3,0.5-0.5,0.9
			c-0.2,0.4-0.4,0.8-0.4,0.8c-0.2,0.4-0.2,0-0.2,0s-0.1-0.4-0.2-0.6c0-0.2-0.1-0.5-0.2-0.8c-0.1-0.3,0-0.4,0-0.4
			c0.5-0.2,1.4,0,1.4,0C20.5,42.8,20.5,43,20.5,43z"/>
		<path class="st0" d="M18.7,42.6c0,0-0.7-1.1-0.5-1.2c0,0,1.1-0.3,1.9,0.3l0.4,1.1c0,0-0.2-0.1-0.5-0.8c0,0,0-0.2-0.2-0.3
			c0,0-0.7-0.4-1.5-0.1c0,0-0.2,0.1,0,0.4C18.5,41.9,18.8,42.8,18.7,42.6z"/>
		<path class="st0" d="M19.2,44.9c0,0-0.6-1-0.7-1.2c0,0-0.3-1.6-0.3-2.1c0,0,0-0.1,0.2,0.7c0.1,0.7,0.2,1.3,0.2,1.3
			S19.1,44.5,19.2,44.9z"/>
	</g>
	<g>
		<path class="st0" d="M38.2,42.9c-0.3,0.2-0.7,0.7-0.5,1.2c0.2,0.6,0.2,0.8,0.2,0.8s-0.2,0.4,0.4-0.3c0.7-0.7,0.5-1.3,0.4-1.5
			c-0.1-0.3-0.1-0.5-0.1-0.5C38.5,42.8,38.2,42.9,38.2,42.9z M38.6,43.3c0.1,0.2,0.3,0.6-0.3,1.3c-0.5,0.6-0.4,0.2-0.4,0.2
			s0-0.2-0.2-0.7c-0.2-0.5,0.1-0.9,0.4-1c0,0,0.2-0.1,0.3-0.2c0,0.1,0,0.1,0,0.3c-0.3,0.4-0.6,0.6-0.6,0.6c0.3-0.2,0.5-0.4,0.6-0.5
			c0,0.1,0,0.2,0,0.3C38.2,43.8,38,44,38,44c0.2-0.1,0.3-0.2,0.4-0.3c-0.1,0.2-0.1,0.5-0.3,0.8c0,0,0.1-0.2,0.3-0.6l0,0
			c0.1,0.2,0,0.5,0,0.5c0.1-0.2,0-0.4,0-0.6c0-0.1,0.1-0.2,0.1-0.3v0c0.2,0.2,0.2,0.5,0.2,0.5c0-0.2-0.1-0.5-0.1-0.6
			c0-0.1,0-0.2,0.1-0.4C38.6,43.1,38.6,43.2,38.6,43.3z M38.5,42.8L38.5,42.8C38.5,42.8,38.5,42.8,38.5,42.8
			C38.5,42.8,38.5,42.8,38.5,42.8z"/>
		<path class="st0" d="M39.2,42.6c0.3,0.3,0.8,0.5,1.3,0.2c0.5-0.4,0.7-0.4,0.7-0.4s0.4,0.1-0.4-0.4c-0.9-0.5-1.4-0.1-1.6,0
			c-0.3,0.2-0.5,0.2-0.5,0.2C39,42.3,39.2,42.6,39.2,42.6z M39.4,42c0.2-0.1,0.5-0.5,1.3,0c0.7,0.4,0.3,0.3,0.3,0.3s-0.2,0-0.6,0.3
			c-0.4,0.3-0.9,0.1-1.1-0.1c0,0-0.1-0.1-0.2-0.2c0,0,0.1,0,0.3,0c0.4,0.2,0.7,0.4,0.7,0.4c-0.3-0.3-0.5-0.4-0.6-0.5
			c0.1,0,0.2,0,0.3,0c0.3,0.1,0.6,0.3,0.6,0.3c-0.2-0.2-0.3-0.2-0.4-0.3c0.2,0,0.5,0,0.9,0c0,0-0.3-0.1-0.7-0.1l0,0
			c0.2-0.1,0.4-0.2,0.4-0.2c-0.2,0-0.4,0.1-0.5,0.2c-0.1,0-0.2,0-0.3,0h0c0.2-0.2,0.4-0.3,0.4-0.3c-0.2,0-0.4,0.2-0.5,0.3
			c-0.1,0-0.2,0-0.4,0C39.3,42.1,39.4,42.1,39.4,42z M39.1,42.2L39.1,42.2C39,42.3,39,42.3,39.1,42.2C39,42.3,39,42.3,39.1,42.2z"/>
	</g>
</g>
</svg>
